<svg width="35" height="35" viewBox="0 0 35 35" fill="none" xmlns="http://www.w3.org/2000/svg">
<path d="M32.0834 30.625C30.4646 30.625 29.5604 30.0854 28.9042 29.6917C28.3646 29.3708 28.0292 29.1667 27.2271 29.1667C26.4104 29.1667 26.0896 29.3562 25.55 29.6917C24.8792 30.0854 23.9896 30.625 22.3709 30.625C20.7521 30.625 19.8479 30.0854 19.1917 29.6917C18.6521 29.3708 18.3167 29.1667 17.5146 29.1667C16.6979 29.1667 16.3771 29.3562 15.8375 29.6917C15.1667 30.0854 14.2625 30.625 12.6438 30.625C11.025 30.625 10.1209 30.0854 9.4646 29.6917C8.92502 29.3562 8.5896 29.1667 7.78752 29.1667C6.98544 29.1667 6.65002 29.3562 6.11044 29.6917C5.4396 30.0854 4.53544 30.625 2.91669 30.625V27.7083C3.73335 27.7083 4.05419 27.5187 4.59377 27.1833C5.2646 26.7896 6.16877 26.25 7.78752 26.25C9.40627 26.25 10.3104 26.7896 10.9667 27.1833C11.5063 27.5187 11.8271 27.7083 12.6438 27.7083C13.4604 27.7083 13.7813 27.5187 14.3209 27.1833C14.9917 26.7896 15.8959 26.25 17.5146 26.25C19.1334 26.25 20.0375 26.7896 20.6938 27.1833C21.2334 27.5042 21.5688 27.7083 22.3709 27.7083C23.1729 27.7083 23.5084 27.5187 24.0479 27.1833C24.7042 26.7896 25.6084 26.25 27.2271 26.25C28.8459 26.25 29.75 26.7896 30.4063 27.1833C30.9459 27.5187 31.2667 27.7083 32.0834 27.7083V30.625ZM32.0834 24.0625C30.4646 24.0625 29.5604 23.5229 28.9042 23.1292C28.3646 22.8083 28.0292 22.6042 27.2271 22.6042C26.4104 22.6042 26.0896 22.7937 25.55 23.1292C24.8938 23.5229 23.9896 24.0625 22.3709 24.0625C20.7521 24.0625 19.8479 23.5229 19.1917 23.1292C18.6521 22.8083 18.3167 22.6042 17.5146 22.6042C16.6979 22.6042 16.3771 22.7937 15.8375 23.1292C15.1813 23.5229 14.2771 24.0625 12.6584 24.0625C11.0396 24.0625 10.1354 23.5229 9.47919 23.1292C8.9396 22.8083 8.60419 22.6042 7.8021 22.6042C7.00002 22.6042 6.6646 22.7937 6.12502 23.1292C5.4396 23.5229 4.53544 24.0625 2.91669 24.0625V21.1458C3.73335 21.1458 4.05419 20.9562 4.59377 20.6208C5.25002 20.2271 6.15419 19.6875 7.77294 19.6875C9.39169 19.6875 10.2959 20.2271 10.9521 20.6208C11.4917 20.9417 11.8271 21.1458 12.6292 21.1458C13.4459 21.1458 13.7667 20.9562 14.3063 20.6208C14.9625 20.2271 15.8667 19.6875 17.4854 19.6875C19.1042 19.6875 20.0084 20.2271 20.6646 20.6208C21.2042 20.9417 21.5396 21.1458 22.3417 21.1458C23.1438 21.1458 23.4792 20.9562 24.0188 20.6208C24.675 20.2271 25.5792 19.6875 27.1979 19.6875C28.8167 19.6875 29.7209 20.2271 30.3771 20.6208C30.9167 20.9417 31.2521 21.1458 32.0542 21.1458V24.0625H32.0834ZM12.6438 17.5C13.4604 17.5 13.7813 17.3104 14.3209 16.975C14.9917 16.5812 15.8959 16.0417 17.5146 16.0417C19.1334 16.0417 20.0375 16.5812 20.6938 16.975C21.2334 17.2958 21.5688 17.5 22.3709 17.5C23.1729 17.5 23.5084 17.3104 24.0479 16.975C24.2229 16.8729 24.4271 16.7562 24.6459 16.6396L15.2834 7.29165C13.0229 5.03124 10.9375 4.3604 7.29169 4.37499V8.02082C9.94585 8.00624 11.5063 8.58957 13.125 10.2083L14.5834 11.6667L9.84377 16.4062C10.2959 16.5812 10.6604 16.8 10.9667 16.975C11.5063 17.3104 11.8271 17.5 12.6438 17.5Z" fill="black"/>
<path d="M24.0625 11.6667C26.0761 11.6667 27.7084 10.0344 27.7084 8.02083C27.7084 6.0073 26.0761 4.375 24.0625 4.375C22.049 4.375 20.4167 6.0073 20.4167 8.02083C20.4167 10.0344 22.049 11.6667 24.0625 11.6667Z" fill="black"/>
</svg>
