<svg width="35" height="35" viewBox="0 0 35 35" fill="none" xmlns="http://www.w3.org/2000/svg">
<path d="M27.7083 8.75H7.29167C5.68084 8.75 4.375 10.0558 4.375 11.6667V27.7083C4.375 29.3192 5.68084 30.625 7.29167 30.625H27.7083C29.3192 30.625 30.625 29.3192 30.625 27.7083V11.6667C30.625 10.0558 29.3192 8.75 27.7083 8.75Z" stroke="black" stroke-width="2"/>
<path d="M4.375 14.5833C4.375 11.8329 4.375 10.4592 5.22958 9.60458C6.08417 8.75 7.45792 8.75 10.2083 8.75H24.7917C27.5421 8.75 28.9158 8.75 29.7704 9.60458C30.625 10.4592 30.625 11.8329 30.625 14.5833H4.375Z" fill="black"/>
<path d="M10.2083 4.375V8.75M24.7916 4.375V8.75" stroke="black" stroke-width="2" stroke-linecap="round"/>
<path d="M15.3125 17.5H10.9375C10.5348 17.5 10.2083 17.8265 10.2083 18.2292V19.6875C10.2083 20.0902 10.5348 20.4167 10.9375 20.4167H15.3125C15.7152 20.4167 16.0416 20.0902 16.0416 19.6875V18.2292C16.0416 17.8265 15.7152 17.5 15.3125 17.5Z" fill="black"/>
<path d="M15.3125 23.3333H10.9375C10.5348 23.3333 10.2083 23.6597 10.2083 24.0624V25.5208C10.2083 25.9235 10.5348 26.2499 10.9375 26.2499H15.3125C15.7152 26.2499 16.0416 25.9235 16.0416 25.5208V24.0624C16.0416 23.6597 15.7152 23.3333 15.3125 23.3333Z" fill="black"/>
<path d="M24.0625 17.5H19.6875C19.2848 17.5 18.9583 17.8265 18.9583 18.2292V19.6875C18.9583 20.0902 19.2848 20.4167 19.6875 20.4167H24.0625C24.4652 20.4167 24.7916 20.0902 24.7916 19.6875V18.2292C24.7916 17.8265 24.4652 17.5 24.0625 17.5Z" fill="black"/>
<path d="M24.0625 23.3333H19.6875C19.2848 23.3333 18.9583 23.6597 18.9583 24.0624V25.5208C18.9583 25.9235 19.2848 26.2499 19.6875 26.2499H24.0625C24.4652 26.2499 24.7916 25.9235 24.7916 25.5208V24.0624C24.7916 23.6597 24.4652 23.3333 24.0625 23.3333Z" fill="black"/>
</svg>
