<svg width="35" height="35" viewBox="0 0 35 35" fill="none" xmlns="http://www.w3.org/2000/svg">
<path d="M30.1389 7.77783H22.3611V9.72228H30.1389V30.1389H22.3611V32.0834H32.0833V9.72228C32.0833 9.20658 31.8784 8.712 31.5138 8.34735C31.1491 7.98269 30.6546 7.77783 30.1389 7.77783Z" fill="black"/>
<path d="M19.3278 2.91675H5.95003C5.40339 2.91675 4.87913 3.1339 4.4926 3.52043C4.10607 3.90697 3.88892 4.43122 3.88892 4.97786V32.0834H21.3889V4.97786C21.3889 4.43122 21.1718 3.90697 20.7852 3.52043C20.3987 3.1339 19.8744 2.91675 19.3278 2.91675ZM19.4445 30.139H16.5278V27.2223H8.75003V30.139H5.83336V4.97786C5.83336 4.96254 5.83638 4.94737 5.84224 4.93321C5.8481 4.91906 5.8567 4.9062 5.86753 4.89536C5.87836 4.88453 5.89123 4.87594 5.90538 4.87007C5.91954 4.86421 5.93471 4.86119 5.95003 4.86119H19.3278C19.3431 4.86119 19.3583 4.86421 19.3725 4.87007C19.3866 4.87594 19.3995 4.88453 19.4103 4.89536C19.4211 4.9062 19.4297 4.91906 19.4356 4.93321C19.4415 4.94737 19.4445 4.96254 19.4445 4.97786V30.139Z" fill="black"/>
<path d="M7.77777 7.77783H9.72222V9.72228H7.77777V7.77783Z" fill="black"/>
<path d="M11.6667 7.77783H13.6111V9.72228H11.6667V7.77783Z" fill="black"/>
<path d="M15.5555 7.77783H17.5V9.72228H15.5555V7.77783Z" fill="black"/>
<path d="M7.77777 12.6389H9.72222V14.5834H7.77777V12.6389Z" fill="black"/>
<path d="M11.6667 12.6389H13.6111V14.5834H11.6667V12.6389Z" fill="black"/>
<path d="M15.5555 12.6389H17.5V14.5834H15.5555V12.6389Z" fill="black"/>
<path d="M7.77777 17.5H9.72222V19.4444H7.77777V17.5Z" fill="black"/>
<path d="M11.6667 17.5H13.6111V19.4444H11.6667V17.5Z" fill="black"/>
<path d="M15.5555 17.5H17.5V19.4444H15.5555V17.5Z" fill="black"/>
<path d="M7.77777 22.3611H9.72222V24.3055H7.77777V22.3611Z" fill="black"/>
<path d="M11.6667 22.3611H13.6111V24.3055H11.6667V22.3611Z" fill="black"/>
<path d="M15.5555 22.3611H17.5V24.3055H15.5555V22.3611Z" fill="black"/>
<path d="M22.3611 12.6389H24.3055V14.5834H22.3611V12.6389Z" fill="black"/>
<path d="M26.25 12.6389H28.1944V14.5834H26.25V12.6389Z" fill="black"/>
<path d="M22.3611 17.5H24.3055V19.4444H22.3611V17.5Z" fill="black"/>
<path d="M26.25 17.5H28.1944V19.4444H26.25V17.5Z" fill="black"/>
<path d="M22.3611 22.3611H24.3055V24.3055H22.3611V22.3611Z" fill="black"/>
<path d="M26.25 22.3611H28.1944V24.3055H26.25V22.3611Z" fill="black"/>
</svg>
