<svg width="17" height="17" viewBox="0 0 17 17" fill="none" xmlns="http://www.w3.org/2000/svg">
<path d="M13.8125 5.17969H11.5547V4.91406C11.5547 3.22734 10.1867 1.85938 8.5 1.85938C6.81328 1.85938 5.44531 3.22734 5.44531 4.91406V5.17969H3.1875C2.89365 5.17969 2.65625 5.41709 2.65625 5.71094V14.6094C2.65625 14.9032 2.89365 15.1406 3.1875 15.1406H13.8125C14.1063 15.1406 14.3438 14.9032 14.3438 14.6094V5.71094C14.3438 5.41709 14.1063 5.17969 13.8125 5.17969ZM10.3594 5.17969H6.64062V4.91406C6.64062 3.88643 7.47236 3.05469 8.5 3.05469C9.52764 3.05469 10.3594 3.88643 10.3594 4.91406V5.17969Z" fill="black"/>
</svg>
