<svg width="17" height="17" viewBox="0 0 17 17" fill="none" xmlns="http://www.w3.org/2000/svg">
<path d="M1.21427 8.49995C1.21427 4.47641 4.47645 1.21423 8.49999 1.21423C12.5235 1.21423 15.7857 4.47641 15.7857 8.49995C15.7857 12.5235 12.5235 15.7857 8.49999 15.7857C7.30642 15.7874 6.13086 15.4946 5.07752 14.9332L2.18145 15.7571C2.05145 15.7941 1.91394 15.7956 1.78314 15.7616C1.65234 15.7276 1.53299 15.6593 1.43742 15.5637C1.34186 15.4682 1.27355 15.3488 1.23955 15.218C1.20555 15.0872 1.20709 14.9497 1.24402 14.8197L2.06731 11.9236C1.50557 10.87 1.21256 9.69398 1.21427 8.49995ZM5.76784 7.13388C5.76784 7.38523 5.97184 7.58923 6.2232 7.58923H10.7768C10.8975 7.58923 11.0134 7.54126 11.0988 7.45586C11.1842 7.37047 11.2321 7.25464 11.2321 7.13388C11.2321 7.01311 11.1842 6.89729 11.0988 6.81189C11.0134 6.72649 10.8975 6.67852 10.7768 6.67852H6.2232C6.10243 6.67852 5.98661 6.72649 5.90121 6.81189C5.81582 6.89729 5.76784 7.01311 5.76784 7.13388ZM6.2232 9.41066C6.10243 9.41066 5.98661 9.45864 5.90121 9.54403C5.81582 9.62943 5.76784 9.74525 5.76784 9.86602C5.76784 9.98679 5.81582 10.1026 5.90121 10.188C5.98661 10.2734 6.10243 10.3214 6.2232 10.3214H8.95534C9.07611 10.3214 9.19193 10.2734 9.27733 10.188C9.36273 10.1026 9.4107 9.98679 9.4107 9.86602C9.4107 9.74525 9.36273 9.62943 9.27733 9.54403C9.19193 9.45864 9.07611 9.41066 8.95534 9.41066H6.2232Z" fill="black"/>
</svg>
