<svg width="50" height="46" viewBox="0 0 50 46" fill="none" xmlns="http://www.w3.org/2000/svg">
<path d="M9.14 45.1975C8.78105 45.5096 8.34051 45.7129 7.87009 45.7834C7.39967 45.8539 6.9189 45.7887 6.48422 45.5955C6.04954 45.4023 5.67901 45.0891 5.4161 44.6927C5.1532 44.2963 5.00885 43.8331 5 43.3575V37.75C3.67392 37.75 2.40215 37.2232 1.46447 36.2855C0.526784 35.3479 0 34.0761 0 32.75V15.25C0 13.9239 0.526784 12.6521 1.46447 11.7145C2.40215 10.7768 3.67392 10.25 5 10.25H32.5C33.8261 10.25 35.0979 10.7768 36.0355 11.7145C36.9732 12.6521 37.5 13.9239 37.5 15.25V32.75C37.5 34.0761 36.9732 35.3479 36.0355 36.2855C35.0979 37.2232 33.8261 37.75 32.5 37.75H20.0075L9.14 45.1975ZM40 25.2925C39.9919 25.5999 39.9919 25.9076 40 26.215V25.2925ZM40 25.2925C40.0117 25.0258 40.015 21.6767 40.01 15.245C40.008 13.2572 39.217 11.3514 37.8106 9.94655C36.4043 8.54165 34.4978 7.7525 32.51 7.7525H12.5V5.25C12.5 3.92392 13.0268 2.65215 13.9645 1.71447C14.9021 0.776784 16.1739 0.25 17.5 0.25L45 0.25C46.3261 0.25 47.5979 0.776784 48.5355 1.71447C49.4732 2.65215 50 3.92392 50 5.25V22.75C50 24.0761 49.4732 25.3479 48.5355 26.2855C47.5979 27.2232 46.3261 27.75 45 27.75V33.3575C44.9911 33.8331 44.8468 34.2963 44.5839 34.6927C44.321 35.0891 43.9505 35.4023 43.5158 35.5955C43.0811 35.7887 42.6003 35.8539 42.1299 35.7834C41.6595 35.7129 41.2189 35.5096 40.86 35.1975L40 34.6075V25.2925Z" fill="black"/>
</svg>
