<svg width="17" height="17" viewBox="0 0 17 17" fill="none" xmlns="http://www.w3.org/2000/svg">
<path d="M8.50017 0C5.7205 0 3.4425 2.2712 3.4425 5.04322C3.4425 6.11728 3.78556 7.11552 4.36611 7.93594L7.8829 14.0156C8.37539 14.6591 8.70282 14.5369 9.11235 13.9817L12.9914 7.38055C13.0696 7.23877 13.1311 7.08781 13.1847 6.93362C13.4308 6.33375 13.5573 5.6916 13.5573 5.04322C13.5575 2.2712 11.2802 0 8.50017 0ZM8.50017 2.363C9.99719 2.363 11.1875 3.55062 11.1875 5.04322C11.1875 6.53582 9.99719 7.7231 8.50017 7.7231C7.00332 7.7231 5.81248 6.53616 5.81248 5.04339C5.81248 3.55062 7.00332 2.36317 8.5 2.36317" fill="black"/>
<path d="M11.7152 8.31433L11.7071 8.33575L11.7142 8.3162L11.7152 8.31433ZM5.78103 11.7397C3.37961 12.079 1.70001 12.8907 1.70001 14.0857C1.70001 15.6952 4.50637 17 8.50001 17C12.4937 17 15.3 15.6952 15.3 14.0857C15.3 12.8907 13.6206 12.079 11.2193 11.7397L10.8866 12.3061C12.6965 12.5572 13.94 13.0849 13.94 13.6972C13.94 14.5557 11.5044 15.2515 8.50001 15.2515C5.4956 15.2515 3.06001 14.5557 3.06001 13.6972C3.05984 13.0869 4.29523 12.5597 6.11066 12.3076L5.78103 11.7397Z" fill="black"/>
</svg>
