<svg width="50" height="50" viewBox="0 0 50 50" fill="none" xmlns="http://www.w3.org/2000/svg">
<path d="M12.5 4.1665L6.25 12.4998V41.6665C6.25 42.7716 6.68899 43.8314 7.47039 44.6128C8.25179 45.3942 9.3116 45.8332 10.4167 45.8332H39.5833C40.6884 45.8332 41.7482 45.3942 42.5296 44.6128C43.311 43.8314 43.75 42.7716 43.75 41.6665V12.4998L37.5 4.1665H12.5Z" stroke="black" stroke-width="2" stroke-linecap="round" stroke-linejoin="round"/>
<path d="M6.25 12.5H43.75" stroke="black" stroke-width="2" stroke-linecap="round" stroke-linejoin="round"/>
<path d="M33.3327 20.8335C33.3327 23.0436 32.4547 25.1632 30.8919 26.7261C29.3291 28.2889 27.2095 29.1668 24.9993 29.1668C22.7892 29.1668 20.6696 28.2889 19.1068 26.7261C17.544 25.1632 16.666 23.0436 16.666 20.8335" stroke="black" stroke-width="2" stroke-linecap="round" stroke-linejoin="round"/>
</svg>
