<?xml version="1.0" standalone="no"?>
<!DOCTYPE svg PUBLIC "-//W3C//DTD SVG 20010904//EN"
 "http://www.w3.org/TR/2001/REC-SVG-20010904/DTD/svg10.dtd">
<svg version="1.0" xmlns="http://www.w3.org/2000/svg"
 width="300.000000pt" height="300.000000pt" viewBox="0 0 300.000000 300.000000"
 preserveAspectRatio="xMidYMid meet">
<metadata>
Created by potrace 1.10, written by Peter Selinger 2001-2011
</metadata>
<g transform="translate(0.000000,300.000000) scale(0.100000,-0.100000)"
fill="#000000" stroke="none">
<path d="M267 2896 c-62 -17 -116 -61 -147 -122 l-25 -48 -3 -1196 c-2 -837 1
-1211 9 -1248 14 -68 61 -129 124 -161 l49 -26 611 0 c665 0 655 -1 721 58 62
53 77 97 82 230 6 165 17 157 -209 157 -155 0 -185 3 -233 21 -73 27 -148 96
-183 167 l-28 57 -3 590 c-2 413 0 606 8 642 23 106 113 204 219 239 40 13 58
25 70 47 26 49 82 107 125 130 32 17 60 22 123 23 117 1 116 0 111 154 -5 137
-18 178 -75 232 -68 65 -48 63 -703 65 -464 2 -606 -1 -643 -11z m312 -65
c-19 -26 -20 -33 -10 -63 18 -52 60 -105 96 -122 26 -13 71 -16 225 -16 222 0
242 5 289 77 43 64 48 99 20 129 l-22 24 161 0 c171 0 200 -6 246 -48 46 -43
56 -80 56 -202 l0 -110 -60 0 c-86 0 -160 -31 -220 -92 -27 -27 -52 -58 -55
-68 -3 -11 -42 -36 -90 -59 -97 -47 -162 -113 -198 -201 -22 -54 -22 -61 -25
-650 -3 -668 -3 -668 67 -770 44 -64 125 -124 195 -145 35 -11 97 -15 207 -15
199 0 193 4 187 -131 -5 -110 -19 -143 -81 -193 l-39 -31 -638 0 -638 0 -39
31 c-80 65 -73 -57 -73 1317 -1 1323 -3 1265 51 1313 54 49 75 53 247 54 l163
0 -22 -29z m611 -22 c0 -22 -64 -118 -85 -127 -17 -8 -93 -12 -219 -12 -181 0
-195 1 -220 21 -21 16 -76 105 -76 121 0 2 135 3 300 3 165 0 300 -3 300 -6z"/>
<path d="M294 2559 c-45 -22 -54 -57 -54 -214 0 -158 4 -175 53 -216 30 -26
30 -27 9 -33 -28 -9 -65 -70 -57 -95 10 -31 56 -71 82 -71 33 0 83 51 83 85 0
17 -12 39 -35 62 l-34 34 34 31 35 30 0 173 0 173 -31 26 c-32 28 -51 31 -85
15z m66 -39 c12 -7 16 -40 18 -164 2 -94 -1 -162 -7 -174 -14 -26 -45 -33 -70
-15 -20 13 -21 24 -21 177 0 113 4 166 12 174 14 14 47 15 68 2z m10 -480 c6
-12 8 -30 5 -40 -7 -24 -52 -37 -74 -23 -20 13 -26 50 -11 69 19 21 67 18 80
-6z"/>
<path d="M1500 2348 c-56 -28 -90 -78 -90 -129 l0 -39 -47 0 c-57 0 -136 -35
-175 -76 -59 -63 -58 -49 -58 -701 0 -585 0 -598 21 -640 11 -24 37 -57 57
-73 74 -61 69 -61 833 -58 l694 3 48 28 c61 36 103 94 117 161 7 36 10 236 8
617 -3 560 -3 564 -25 605 -44 83 -129 134 -222 134 -41 0 -41 0 -41 39 0 51
-34 100 -90 129 -99 51 -215 -12 -228 -124 l-5 -44 -283 0 -284 0 0 39 c0 23
-9 51 -23 72 -24 37 -97 79 -137 79 -14 0 -46 -10 -70 -22z m120 -98 c18 -18
20 -33 20 -139 0 -138 -11 -164 -70 -164 -59 0 -70 26 -70 164 0 106 2 121 20
139 11 11 33 20 50 20 17 0 39 -9 50 -20z m894 -2 c12 -17 16 -50 16 -139 0
-135 -12 -162 -70 -162 -59 0 -70 26 -70 164 0 106 2 121 20 139 28 28 84 27
104 -2z m-1054 -153 c0 -103 12 -141 52 -169 29 -21 82 -20 114 0 42 28 54 64
54 169 0 52 2 95 5 95 2 0 15 -11 29 -25 l25 -25 275 0 274 0 31 26 31 26 0
-97 c0 -134 30 -185 110 -185 80 0 110 51 110 185 0 52 3 95 6 95 4 0 17 -11
30 -25 14 -15 34 -25 51 -25 78 0 162 -52 189 -117 10 -23 14 -86 14 -224 l0
-191 -31 26 -31 26 -783 0 -783 0 -31 -26 -31 -26 0 191 c0 138 4 201 14 224
26 65 111 117 189 117 16 0 37 10 50 24 12 13 25 24 30 25 4 1 7 -42 7 -94z
m1350 -870 c0 -437 0 -437 -63 -475 -31 -19 -55 -20 -730 -20 -770 0 -737 -3
-777 63 -19 30 -20 53 -20 430 l0 397 795 0 795 0 0 -395z"/>
<path d="M2235 1509 c-11 -6 -81 -72 -155 -145 l-136 -134 -34 36 c-46 48 -80
64 -132 64 -54 0 -100 -27 -121 -73 -38 -80 -18 -124 117 -255 110 -107 139
-122 208 -107 46 10 412 370 440 434 32 69 7 141 -62 176 -34 17 -96 19 -125
4z m133 -64 c15 -18 22 -39 22 -67 0 -41 -5 -47 -187 -231 -104 -104 -203
-196 -221 -204 -26 -11 -41 -12 -66 -3 -37 12 -219 192 -230 228 -11 35 12 90
44 107 50 26 83 19 142 -30 30 -25 65 -45 77 -45 14 0 66 43 154 128 73 71
141 134 152 141 30 17 87 5 113 -24z"/>
</g>
</svg>
