<svg xmlns="http://www.w3.org/2000/svg" viewBox="0 0 1037.5 963"><defs><style>.a,.b,.c{stroke:#fff;}.a,.b{stroke-miterlimit:10;}.a{stroke-width:14px;}.b{stroke-width:22px;}.c{stroke-linecap:round;stroke-linejoin:round;stroke-width:21px;}.d{fill:#fff;}</style></defs><path class="a" d="M489,816V588s4-66,49-83,219-24,219-24,49-2,60,76V681" transform="translate(-417 -42)"/><path class="a" d="M1369,816V588s-4-66-49-83-219-24-219-24-49-2-60,76V681" transform="translate(-417 -42)"/><ellipse class="b" cx="518.75" cy="742.5" rx="507.75" ry="136.5"/><path class="c" d="M462.37,742.5H590.63A125.87,125.87,0,0,1,716.5,868.37V952.5a0,0,0,0,1,0,0h-380a0,0,0,0,1,0,0V868.37A125.87,125.87,0,0,1,462.37,742.5Z"/><rect class="d" x="179.5" y="14.5" width="693" height="359" rx="27.31"/><path d="M1262.19,71A13,13,0,0,1,1275,83.81V388.19A13,13,0,0,1,1262.19,401H623.81A13,13,0,0,1,611,388.19V83.81A13,13,0,0,1,623.81,71h638.38m0-29H623.81A41.93,41.93,0,0,0,582,83.81V388.19A41.93,41.93,0,0,0,623.81,430h638.38A41.93,41.93,0,0,0,1304,388.19V83.81A41.93,41.93,0,0,0,1262.19,42Z" transform="translate(-417 -42)"/><path d="M765.29,234.18H714.35v47.24h56.77v14.19H697.44v-131h70.77v14.19H714.35v41.41h50.94Z" transform="translate(-417 -42)"/><path d="M823.6,295.61l-42.77-131h18.28l20.41,64.54c5.64,17.69,10.5,33.63,14,49h.39c3.69-15.16,9.14-31.69,15-48.8L871,164.58h18.08l-46.85,131Z" transform="translate(-417 -42)"/><path d="M971.16,234.18H920.22v47.24H977v14.19H903.31v-131h70.77v14.19H920.22v41.41h50.94Z" transform="translate(-417 -42)"/><path d="M999,295.61v-131h18.46l42,66.29a370.45,370.45,0,0,1,23.52,42.58l.39-.2c-1.55-17.5-1.94-33.44-1.94-53.85V164.58h15.94v131h-17.11l-41.6-66.49c-9.14-14.58-17.89-29.55-24.5-43.74l-.58.19c1,16.53,1.36,32.27,1.36,54.05v56Z" transform="translate(-417 -42)"/><path d="M1151.76,179H1111.9V164.58h97V179h-40V295.61h-17.11Z" transform="translate(-417 -42)"/></svg>