<svg width="35" height="35" viewBox="0 0 35 35" fill="none" xmlns="http://www.w3.org/2000/svg">
<path d="M3.93754 29.1667L9.44274 13.8542C9.56427 13.5382 9.75288 13.2951 10.0086 13.125C10.2643 12.9549 10.5375 12.8698 10.8282 12.8698C11.0226 12.8698 11.2049 12.9062 11.375 12.9792C11.5452 13.0521 11.7032 13.1615 11.849 13.3073L21.6927 23.151C21.8386 23.2969 21.948 23.4549 22.0209 23.625C22.0938 23.7951 22.1302 23.9774 22.1302 24.1719C22.1302 24.4635 22.0452 24.7372 21.875 24.9929C21.7049 25.2486 21.4618 25.4367 21.1459 25.5573L5.83337 31.0625C5.5417 31.184 5.26219 31.2025 4.99483 31.1179C4.72747 31.0333 4.49656 30.8933 4.30212 30.6979C4.10767 30.5025 3.96767 30.2716 3.88212 30.0052C3.79656 29.7388 3.81504 29.4593 3.93754 29.1667ZM33.5782 10.2448C33.3594 10.4635 33.1042 10.5729 32.8125 10.5729C32.5209 10.5729 32.2657 10.4635 32.0469 10.2448L31.9375 10.1354C31.5973 9.79514 31.1719 9.625 30.6615 9.625C30.1511 9.625 29.7257 9.79514 29.3855 10.1354L21.9844 17.5365C21.7657 17.7552 21.5105 17.8646 21.2188 17.8646C20.9271 17.8646 20.6719 17.7552 20.4532 17.5365C20.2344 17.3177 20.125 17.0625 20.125 16.7708C20.125 16.4792 20.2344 16.224 20.4532 16.0052L27.8542 8.60417C28.632 7.82639 29.5677 7.4375 30.6615 7.4375C31.7552 7.4375 32.691 7.82639 33.4688 8.60417L33.5782 8.71354C33.7969 8.93229 33.9063 9.1875 33.9063 9.47917C33.9063 9.77083 33.7969 10.026 33.5782 10.2448ZM14.5469 5.86979C14.7657 5.65104 15.0209 5.54167 15.3125 5.54167C15.6042 5.54167 15.8594 5.65104 16.0782 5.86979L16.2605 6.05208C17.0382 6.82986 17.4271 7.75347 17.4271 8.82292C17.4271 9.89236 17.0382 10.816 16.2605 11.5937L16.1511 11.7031C15.9323 11.9219 15.6771 12.0312 15.3855 12.0312C15.0938 12.0312 14.8386 11.9219 14.6198 11.7031C14.4011 11.4844 14.2917 11.2292 14.2917 10.9375C14.2917 10.6458 14.4011 10.3906 14.6198 10.1719L14.7292 10.0625C15.0695 9.72222 15.2396 9.30903 15.2396 8.82292C15.2396 8.33681 15.0695 7.92361 14.7292 7.58333L14.5469 7.40104C14.3282 7.18229 14.2188 6.92708 14.2188 6.63542C14.2188 6.34375 14.3282 6.08854 14.5469 5.86979ZM20.4532 2.95313C20.6719 2.73438 20.9271 2.625 21.2188 2.625C21.5105 2.625 21.7657 2.73438 21.9844 2.95313L23.5521 4.52083C24.3299 5.29861 24.7188 6.23438 24.7188 7.32812C24.7188 8.42188 24.3299 9.35764 23.5521 10.1354L19.0677 14.6198C18.849 14.8385 18.5938 14.9479 18.3021 14.9479C18.0105 14.9479 17.7552 14.8385 17.5365 14.6198C17.3177 14.401 17.2084 14.1458 17.2084 13.8542C17.2084 13.5625 17.3177 13.3073 17.5365 13.0885L22.0209 8.60417C22.3611 8.26389 22.5313 7.83854 22.5313 7.32812C22.5313 6.81771 22.3611 6.39236 22.0209 6.05208L20.4532 4.48438C20.2344 4.26562 20.125 4.01042 20.125 3.71875C20.125 3.42708 20.2344 3.17188 20.4532 2.95313ZM32.1198 20.4531C31.9011 20.6719 31.6459 20.7812 31.3542 20.7812C31.0625 20.7812 30.8073 20.6719 30.5886 20.4531L29.0209 18.8854C28.6806 18.5451 28.2552 18.375 27.7448 18.375C27.2344 18.375 26.8091 18.5451 26.4688 18.8854L24.9011 20.4531C24.6823 20.6719 24.4271 20.7812 24.1355 20.7812C23.8438 20.7812 23.5886 20.6719 23.3698 20.4531C23.1511 20.2344 23.0417 19.9792 23.0417 19.6875C23.0417 19.3958 23.1511 19.1406 23.3698 18.9219L24.9375 17.3542C25.7153 16.5764 26.6511 16.1875 27.7448 16.1875C28.8386 16.1875 29.7743 16.5764 30.5521 17.3542L32.1198 18.9219C32.3386 19.1406 32.448 19.3958 32.448 19.6875C32.448 19.9792 32.3386 20.2344 32.1198 20.4531Z" fill="black"/>
</svg>
