<svg width="35" height="35" viewBox="0 0 35 35" fill="none" xmlns="http://www.w3.org/2000/svg">
<g clip-path="url(#clip0_1_19)">
<path d="M5.75185 26.6315C5.61524 26.3942 5.30608 26.3151 5.06882 26.4517L3.81779 27.1779V25.7328C3.81779 25.4596 3.59491 25.2367 3.32169 25.2367C3.04848 25.2367 2.8256 25.4596 2.8256 25.7328V27.1779L1.57457 26.4517C1.33731 26.3151 1.02814 26.3942 0.891538 26.6315C0.754931 26.8688 0.834019 27.1779 1.07128 27.3145L2.3295 28.0479L1.07128 28.7812C0.834019 28.9179 0.754931 29.227 0.891538 29.4643C1.02814 29.7015 1.33731 29.7806 1.57457 29.644L2.8256 28.9179V30.363C2.8256 30.6362 3.04848 30.8591 3.32169 30.8591C3.59491 30.8591 3.81779 30.6362 3.81779 30.363V28.9179L5.06882 29.644C5.30608 29.7806 5.61524 29.7015 5.75185 29.4643C5.88846 29.227 5.80937 28.9179 5.5721 28.7812L4.31389 28.0479L5.5721 27.3145C5.80937 27.1707 5.89565 26.8688 5.75185 26.6315ZM10.3461 29.4571C10.4827 29.6944 10.7919 29.7734 11.0292 29.6368L12.2802 28.9107V30.3558C12.2802 30.629 12.5031 30.8519 12.7763 30.8519C13.0495 30.8519 13.2724 30.629 13.2724 30.3558V28.9107L14.5234 29.6368C14.7607 29.7734 15.0698 29.6944 15.2065 29.4571C15.3431 29.2198 15.264 28.9107 15.0267 28.7741L13.7685 28.0407L15.0267 27.3073C15.264 27.1707 15.3431 26.8616 15.2065 26.6243C15.0698 26.387 14.7607 26.308 14.5234 26.4446L13.2724 27.1707V25.7256C13.2724 25.4524 13.0495 25.2295 12.7763 25.2295C12.5031 25.2295 12.2802 25.4524 12.2802 25.7256V27.1707L11.0292 26.4517C10.7919 26.3151 10.4827 26.3942 10.3461 26.6315C10.2095 26.8688 10.2886 27.1779 10.5259 27.3145L11.7841 28.0479L10.5259 28.7741C10.2886 28.9107 10.2095 29.2198 10.3461 29.4571ZM9.4546 33.2245V34.1017C9.4546 34.3102 9.62716 34.4828 9.83566 34.4828H15.7241C15.9326 34.4828 16.1052 34.3102 16.1052 34.1017V33.2245C16.1052 33.016 15.9326 32.8435 15.7241 32.8435H9.83566C9.61997 32.8435 9.4546 33.016 9.4546 33.2245ZM23.8055 8.70729H23.7623V6.75166C23.7623 3.35088 20.9799 0.460579 17.5863 0.518098C14.2862 0.575616 11.6115 3.27899 11.6115 6.59349V6.78042C11.6115 7.06083 11.8416 7.2909 12.122 7.2909H13.7541C14.0345 7.2909 14.2646 7.06083 14.2646 6.78042V6.72291C14.2646 4.89669 15.6378 3.29337 17.4641 3.17833C19.4484 3.0561 21.1021 4.63067 21.1021 6.5863V8.7001H16.0692V8.70729H11.4174C10.5546 8.73605 9.85723 9.43346 9.85723 10.3034V19.1469C9.85723 20.0312 10.5762 20.7502 11.4606 20.7502H23.7983C24.6826 20.7502 25.4016 20.0312 25.4016 19.1469V10.3106C25.4088 9.42628 24.6898 8.70729 23.8055 8.70729ZM18.5857 15.1278C18.4634 15.2141 18.4275 15.3075 18.4275 15.4513C18.4347 16.0984 18.4347 16.7455 18.4275 17.3998C18.4419 17.673 18.3053 17.9318 18.0608 18.054C17.4928 18.3416 16.9248 17.939 16.9248 17.3998V15.4441C16.9248 15.3147 16.8961 15.2213 16.781 15.135C16.1915 14.7036 15.9973 13.963 16.2921 13.3088C16.5797 12.6761 17.2771 12.3022 17.9314 12.4388C18.6647 12.5826 19.1752 13.1794 19.1824 13.9055C19.204 14.416 18.9955 14.833 18.5857 15.1278ZM18.902 33.2245V34.1017C18.902 34.3102 19.0746 34.4828 19.2831 34.4828H25.1715C25.38 34.4828 25.5526 34.3102 25.5526 34.1017V33.2245C25.5526 33.016 25.38 32.8435 25.1715 32.8435H19.2831C19.0746 32.8435 18.902 33.016 18.902 33.2245ZM19.7935 29.4571C19.9302 29.6944 20.2393 29.7734 20.4766 29.6368L21.7276 28.9107V30.3558C21.7276 30.629 21.9505 30.8519 22.2237 30.8519C22.4969 30.8519 22.7198 30.629 22.7198 30.3558V28.9107L23.9708 29.6368C24.2081 29.7734 24.5173 29.6944 24.6539 29.4571C24.7905 29.2198 24.7114 28.9107 24.4741 28.7741L23.2159 28.0407L24.4741 27.3073C24.7114 27.1707 24.7905 26.8616 24.6539 26.6243C24.5173 26.387 24.2081 26.308 23.9708 26.4446L22.7198 27.1707V25.7256C22.7198 25.4524 22.4969 25.2295 22.2237 25.2295C21.9505 25.2295 21.7276 25.4524 21.7276 25.7256V27.1707L20.4766 26.4446C20.2393 26.308 19.9302 26.387 19.7935 26.6243C19.6569 26.8616 19.736 27.1707 19.9733 27.3073L21.2315 28.0407L19.9733 28.7741C19.736 28.9107 19.6569 29.2198 19.7935 29.4571ZM34.6189 32.8435H28.7305C28.522 32.8435 28.3494 33.016 28.3494 33.2245V34.1017C28.3494 34.3102 28.522 34.4828 28.7305 34.4828H34.6189C34.8274 34.4828 35 34.3102 35 34.1017V33.2245C35 33.016 34.8274 32.8435 34.6189 32.8435ZM0.381061 34.4828H6.26952C6.47802 34.4828 6.65058 34.3102 6.65058 34.1017V33.2245C6.65058 33.016 6.47802 32.8435 6.26952 32.8435H0.381061C0.172557 32.8435 1.28746e-06 33.016 1.28746e-06 33.2245V34.1017C1.28746e-06 34.3102 0.172557 34.4828 0.381061 34.4828ZM29.2481 29.4571C29.3848 29.6944 29.6939 29.7734 29.9312 29.6368L31.1822 28.9107V30.3558C31.1822 30.629 31.4051 30.8519 31.6783 30.8519C31.9515 30.8519 32.1744 30.629 32.1744 30.3558V28.9107L33.4254 29.6368C33.6627 29.7734 33.9719 29.6944 34.1085 29.4571C34.2451 29.2198 34.166 28.9107 33.9287 28.7741L32.6705 28.0407L33.9287 27.3073C34.166 27.1707 34.2451 26.8616 34.1085 26.6243C33.9719 26.387 33.6627 26.308 33.4254 26.4446L32.1744 27.1707V25.7256C32.1744 25.4524 31.9515 25.2295 31.6783 25.2295C31.4051 25.2295 31.1822 25.4524 31.1822 25.7256V27.1707L29.9312 26.4446C29.6939 26.308 29.3848 26.387 29.2481 26.6243C29.1115 26.8616 29.1906 27.1707 29.4279 27.3073L30.6861 28.0407L29.4279 28.7741C29.1906 28.9107 29.1044 29.2198 29.2481 29.4571Z" fill="black"/>
</g>
<defs>
<clipPath id="clip0_1_19">
<rect width="35" height="35" fill="white"/>
</clipPath>
</defs>
</svg>
