<svg width="17" height="17" viewBox="0 0 17 17" fill="none" xmlns="http://www.w3.org/2000/svg">
<path d="M8.27461 4.41025L2.83356 10.1731V16.3928C2.83356 16.5538 2.88331 16.7083 2.97186 16.8222C3.06041 16.936 3.18051 17 3.30574 17L6.61281 16.989C6.73764 16.9882 6.85713 16.9239 6.94518 16.8101C7.03322 16.6963 7.08264 16.5423 7.08264 16.3818V12.7495C7.08264 12.5885 7.13239 12.434 7.22094 12.3202C7.30949 12.2063 7.42959 12.1423 7.55483 12.1423H9.44357C9.5688 12.1423 9.6889 12.2063 9.77745 12.3202C9.86601 12.434 9.91575 12.5885 9.91575 12.7495V16.3791C9.91556 16.459 9.92763 16.5382 9.95127 16.6121C9.97492 16.686 10.0097 16.7531 10.0535 16.8097C10.0974 16.8663 10.1495 16.9112 10.2069 16.9418C10.2643 16.9725 10.3258 16.9882 10.3879 16.9882L13.6938 17C13.8191 17 13.9392 16.936 14.0277 16.8222C14.1163 16.7083 14.166 16.5538 14.166 16.3928V10.1689L8.72614 4.41025C8.66219 4.34396 8.58252 4.30781 8.50038 4.30781C8.41824 4.30781 8.33857 4.34396 8.27461 4.41025ZM16.8693 8.32713L14.4021 5.71195V0.455408C14.4021 0.334626 14.3648 0.218792 14.2984 0.133386C14.232 0.0479804 14.1419 0 14.048 0H12.3953C12.3014 0 12.2113 0.0479804 12.1449 0.133386C12.0785 0.218792 12.0412 0.334626 12.0412 0.455408V3.21101L9.39901 0.41556C9.14545 0.147241 8.82727 0.000536374 8.4989 0.000536374C8.17053 0.000536374 7.85236 0.147241 7.5988 0.41556L0.128523 8.32713C0.0926624 8.36525 0.0629937 8.41208 0.0412118 8.46494C0.0194298 8.51781 0.00596157 8.57568 0.00157656 8.63524C-0.00280846 8.6948 0.0019757 8.75489 0.0156557 8.81207C0.0293357 8.86925 0.0516433 8.92241 0.0813041 8.9685L0.83385 10.145C0.86343 10.1912 0.899814 10.2295 0.940918 10.2577C0.982022 10.2858 1.02704 10.3033 1.07339 10.309C1.11975 10.3148 1.16653 10.3087 1.21106 10.2912C1.25558 10.2736 1.29699 10.245 1.33289 10.2068L8.27461 2.85427C8.33857 2.78798 8.41824 2.75183 8.50038 2.75183C8.58252 2.75183 8.66219 2.78798 8.72614 2.85427L15.6682 10.2068C15.704 10.245 15.7453 10.2737 15.7898 10.2913C15.8343 10.3088 15.881 10.315 15.9273 10.3094C15.9736 10.3037 16.0186 10.2864 16.0597 10.2584C16.1009 10.2304 16.1373 10.1922 16.1669 10.1461L16.9195 8.96964C16.9491 8.92328 16.9713 8.86985 16.9848 8.81242C16.9983 8.75498 17.0029 8.69468 16.9982 8.63498C16.9936 8.57527 16.9798 8.51734 16.9576 8.46451C16.9355 8.41168 16.9055 8.36499 16.8693 8.32713Z" fill="black"/>
</svg>
