<svg width="35" height="35" viewBox="0 0 35 35" fill="none" xmlns="http://www.w3.org/2000/svg">
<path d="M14.5833 9.04163C14.5833 6.27079 12.8333 3.79163 10.2083 2.91663V8.31246H5.83331V2.91663C3.20831 3.79163 1.45831 6.27079 1.45831 9.04163C1.45831 11.8125 3.20831 14.2916 5.83331 15.1666V31.2083C5.83331 31.7916 6.12498 32.0833 6.56248 32.0833H9.47915C9.91665 32.0833 10.2083 31.7916 10.2083 31.3541V15.3125C12.8333 14.4375 14.5833 11.9583 14.5833 9.04163ZM23.3333 11.6666C17.6458 11.8125 13.125 16.3333 13.125 21.875C13.125 27.5625 17.6458 32.0833 23.3333 32.0833C29.0208 32.0833 33.5416 27.5625 33.5416 21.875C33.5416 16.1875 29.0208 11.6666 23.3333 11.6666ZM23.3333 29.1666C19.25 29.1666 16.0416 25.9583 16.0416 21.875C16.0416 17.7916 19.25 14.5833 23.3333 14.5833C27.4166 14.5833 30.625 17.7916 30.625 21.875C30.625 25.9583 27.4166 29.1666 23.3333 29.1666ZM21.875 16.0416V23.3333L27.125 26.5416L28.2916 24.7916L24.0625 22.3125V16.0416H21.875Z" fill="black"/>
</svg>
