<svg width="222" height="223" viewBox="0 0 222 223" fill="none" xmlns="http://www.w3.org/2000/svg">
<path d="M56.2555 100.67H51.6025C51.2917 100.67 50.9842 100.735 50.6991 100.86C50.414 100.985 50.1575 101.169 49.9455 101.398L34.2673 118.385V102.959C34.2673 102.352 34.0286 101.77 33.6038 101.341C33.179 100.912 32.6028 100.67 32.002 100.67C16.8539 100.67 4.53061 88.2192 4.53061 72.9138V32.3523C4.53061 17.0469 16.8539 4.59566 32.002 4.59566H117.124C132.272 4.59566 144.596 17.0469 144.596 32.3523V73.8625C144.596 74.4695 144.834 75.0517 145.259 75.4809C145.684 75.9102 146.26 76.1513 146.861 76.1513C147.462 76.1513 148.038 75.9102 148.463 75.4809C148.888 75.0517 149.126 74.4695 149.126 73.8625V32.3523C149.126 14.5223 134.77 0.0180054 117.124 0.0180054H32.002C14.3564 0.016861 0 14.5223 0 32.3523V72.9138C0 89.9735 13.1433 103.99 29.7367 105.168V121.29C29.7367 122.711 30.5816 123.964 31.8887 124.484C32.5233 124.739 33.2192 124.794 33.885 124.641C34.5509 124.489 35.1556 124.137 35.6197 123.631L52.5857 105.247H56.2544C56.8462 105.234 57.4095 104.987 57.8235 104.559C58.2375 104.132 58.4694 103.557 58.4696 102.959C58.4697 102.361 58.2381 101.787 57.8243 101.359C57.4105 100.931 56.8474 100.684 56.2555 100.67Z" fill="black"/>
<path d="M17.6603 52.6325C17.6603 60.3138 23.8458 66.5634 31.4481 66.5634C39.0516 66.5634 45.237 60.3138 45.237 52.6325C45.237 44.9511 39.0516 38.7015 31.4481 38.7015C23.8458 38.7015 17.6603 44.9511 17.6603 52.6325ZM74.5637 66.5645C82.1661 66.5645 88.3515 60.3149 88.3515 52.6336C88.3515 44.9523 82.1661 38.7026 74.5637 38.7026C66.9602 38.7026 60.7748 44.9523 60.7748 52.6336C60.7748 60.3149 66.9602 66.5645 74.5637 66.5645ZM103.89 52.6325C103.89 60.3138 110.076 66.5634 117.679 66.5634C125.282 66.5634 131.467 60.3138 131.467 52.6325C131.467 44.9511 125.282 38.7015 117.679 38.7015C110.076 38.7015 103.89 44.9511 103.89 52.6325ZM187.73 83.3726H96.1611C77.2639 83.3726 61.8916 98.9057 61.8916 117.998V161.645C61.8916 180.728 77.2572 196.253 96.1441 196.253H153.485L184.477 221.262C184.976 221.669 185.579 221.924 186.215 221.996C186.852 222.069 187.496 221.957 188.071 221.673C188.65 221.395 189.137 220.956 189.478 220.409C189.819 219.861 189.998 219.226 189.995 218.579V196.179C207.84 194.996 222 179.959 222 161.645V117.998C222 98.9057 206.628 83.3726 187.73 83.3726ZM217.469 161.645C217.469 178.203 204.129 191.675 187.73 191.675C187.13 191.675 186.553 191.917 186.129 192.346C185.704 192.775 185.465 193.357 185.465 193.964V216.2L155.692 192.175C155.291 191.852 154.792 191.675 154.279 191.675H96.1453C79.7558 191.675 66.4233 178.203 66.4233 161.645V117.998C66.4233 101.429 79.7637 87.9502 96.1623 87.9502H187.732C204.13 87.9502 217.471 101.429 217.471 117.998V161.645H217.469Z" fill="black"/>
<path d="M188.335 125.002C180.249 125.002 173.672 131.649 173.672 139.817C173.672 147.986 180.25 154.633 188.335 154.633C196.42 154.633 202.998 147.986 202.998 139.817C202.998 131.649 196.42 125.002 188.335 125.002ZM141.944 125.002C133.859 125.002 127.282 131.649 127.282 139.817C127.282 147.986 133.86 154.633 141.944 154.633C150.03 154.633 156.607 147.986 156.607 139.817C156.607 131.649 150.03 125.002 141.944 125.002ZM95.5552 125.002C87.4692 125.002 80.8918 131.649 80.8918 139.817C80.8918 147.986 87.4703 154.633 95.5552 154.633C103.64 154.633 110.218 147.986 110.218 139.817C110.218 131.649 103.641 125.002 95.5552 125.002Z" fill="black"/>
</svg>
