<svg width="35" height="35" viewBox="0 0 35 35" fill="none" xmlns="http://www.w3.org/2000/svg">
<path d="M8.75 6.56239V10.9374H7.65625C6.78601 10.9374 5.95141 11.2831 5.33606 11.8984C4.7207 12.5138 4.375 13.3484 4.375 14.2186V28.4374C4.375 29.5977 4.83594 30.7105 5.65641 31.531C6.47688 32.3515 7.58968 32.8124 8.75 32.8124H18.6594L16.5178 30.6249H8.75C8.16984 30.6249 7.61344 30.3944 7.2032 29.9842C6.79297 29.5739 6.5625 29.0176 6.5625 28.4374V14.2186C6.5625 13.9286 6.67773 13.6504 6.88285 13.4452C7.08797 13.2401 7.36617 13.1249 7.65625 13.1249H24.9003C25.3101 13.1249 25.7126 13.1701 26.1078 13.2605C25.9025 12.5881 25.4867 11.9994 24.9215 11.5811C24.3564 11.1629 23.6718 10.9372 22.9688 10.9374H21.875V6.56239C21.875 5.79443 21.6728 5.04 21.2888 4.37493C20.9048 3.70986 20.3525 3.15758 19.6875 2.77361C19.0224 2.38964 18.2679 2.1875 17.5 2.1875C16.732 2.1875 15.9776 2.38966 15.3125 2.77364C14.6474 2.38966 13.893 2.1875 13.125 2.1875C12.3571 2.1875 11.6026 2.38964 10.9375 2.77361C10.2725 3.15758 9.72017 3.70986 9.33618 4.37493C8.95219 5.04 8.75002 5.79443 8.75 6.56239ZM10.9375 10.9374V6.56239C10.9375 5.98223 11.168 5.42583 11.5782 5.01559C11.9884 4.60536 12.5448 4.37489 13.125 4.37489C13.7052 4.37489 14.2616 4.60536 14.6718 5.01559C15.082 5.42583 15.3125 5.98223 15.3125 6.56239V10.9374H10.9375ZM17.5 10.9374V6.56239C17.5 5.79458 17.3031 5.07051 16.9531 4.4427C17.2764 4.36011 17.6144 4.35243 17.9411 4.42025C18.2678 4.48807 18.5748 4.6296 18.8385 4.83406C19.1023 5.03851 19.3158 5.30048 19.463 5.6C19.6101 5.89952 19.6869 6.22868 19.6875 6.56239V10.9374H17.5ZM16.2575 27.2343C15.6484 26.6166 15.3086 25.783 15.3125 24.9155V18.6221C15.3116 18.1878 15.3964 17.7575 15.562 17.356C15.7277 16.9545 15.9708 16.5896 16.2776 16.2822C16.5844 15.9748 16.9489 15.7309 17.3501 15.5645C17.7512 15.398 18.1813 15.3124 18.6156 15.3124H24.9003C25.7819 15.3124 26.6262 15.6646 27.2453 16.2902L34.0441 23.159C34.3522 23.4707 34.5953 23.8406 34.7594 24.247C34.9235 24.6535 35.0052 25.0885 34.9999 25.5268C34.9946 25.9651 34.9024 26.3979 34.7285 26.8003C34.5547 27.2027 34.3027 27.5666 33.9872 27.8708L27.5406 34.0768C26.9133 34.6796 26.0735 35.0107 25.2036 34.998C24.3336 34.9853 23.5038 34.6299 22.8944 34.009L16.2575 27.2343ZM19.6875 21.328C19.6875 21.7631 19.8604 22.1804 20.168 22.4881C20.4757 22.7958 20.893 22.9686 21.3281 22.9686C21.7632 22.9686 22.1805 22.7958 22.4882 22.4881C22.7959 22.1804 22.9688 21.7631 22.9688 21.328C22.9688 20.8929 22.7959 20.4756 22.4882 20.1679C22.1805 19.8602 21.7632 19.6874 21.3281 19.6874C20.893 19.6874 20.4757 19.8602 20.168 20.1679C19.8604 20.4756 19.6875 20.8929 19.6875 21.328Z" fill="black"/>
</svg>
