<svg width="50" height="54" viewBox="0 0 50 54" fill="none" xmlns="http://www.w3.org/2000/svg">
<path opacity="0.2" d="M25 27.2555V51.375C24.6851 51.3737 24.3756 51.2931 24.1 51.1407L3.475 39.8485C3.18049 39.6873 2.93465 39.4501 2.76315 39.1615C2.59164 38.8729 2.50076 38.5436 2.5 38.2079V15.7922C2.50074 15.5296 2.55664 15.2701 2.66406 15.0305L25 27.2555Z" fill="black"/>
<path d="M47.425 12.504L26.8 1.21885C26.2489 0.914358 25.6296 0.754639 25 0.754639C24.3704 0.754639 23.7511 0.914358 23.2 1.21885L2.575 12.5087C1.98599 12.831 1.4943 13.3055 1.15129 13.8827C0.808282 14.4598 0.626524 15.1185 0.625 15.7899V38.2056C0.626524 38.877 0.808282 39.5357 1.15129 40.1129C1.4943 40.69 1.98599 41.1645 2.575 41.4868L23.2 52.7767C23.7511 53.0812 24.3704 53.2409 25 53.2409C25.6296 53.2409 26.2489 53.0812 26.8 52.7767L47.425 41.4868C48.014 41.1645 48.5057 40.69 48.8487 40.1129C49.1917 39.5357 49.3735 38.877 49.375 38.2056V15.7923C49.3747 15.1197 49.1936 14.4595 48.8505 13.881C48.5074 13.3025 48.0151 12.8269 47.425 12.504ZM25 4.5001L43.8297 14.8126L36.8523 18.6329L18.0203 8.32042L25 4.5001ZM25 25.1251L6.17031 14.8126L14.1156 10.4626L32.9453 20.7751L25 25.1251ZM4.375 18.0939L23.125 28.3548V48.4618L4.375 38.2079V18.0939ZM45.625 38.1985L26.875 48.4618V28.3642L34.375 24.2603V32.6251C34.375 33.1224 34.5725 33.5993 34.9242 33.9509C35.2758 34.3026 35.7527 34.5001 36.25 34.5001C36.7473 34.5001 37.2242 34.3026 37.5758 33.9509C37.9275 33.5993 38.125 33.1224 38.125 32.6251V22.2071L45.625 18.0939V38.1962V38.1985Z" fill="black"/>
</svg>
