<svg width="31" height="31" viewBox="0 0 31 31" fill="none" xmlns="http://www.w3.org/2000/svg">
<path d="M18.6905 19.4783L14.2084 16.7916V9.04158H16.1459V15.8228L20.1242 18.1866C19.5946 18.5483 19.1038 18.9874 18.6905 19.4783ZM16.895 25.7299C16.43 25.7945 15.978 25.8333 15.5 25.8333C9.79087 25.8333 5.16671 21.2091 5.16671 15.4999C5.16671 9.79075 9.79087 5.16659 15.5 5.16659C21.2092 5.16659 25.8334 9.79075 25.8334 15.4999C25.8334 15.9778 25.7946 16.4299 25.73 16.8949C26.6213 17.0241 27.448 17.3083 28.21 17.7216C28.3392 16.9983 28.4167 16.262 28.4167 15.4999C28.4167 8.39575 22.6042 2.58325 15.5 2.58325C8.39587 2.58325 2.58337 8.39575 2.58337 15.4999C2.58337 22.6041 8.35712 28.4166 15.5 28.4166C16.2621 28.4166 16.9984 28.3391 17.7217 28.2099C17.3084 27.4478 17.0242 26.6212 16.895 25.7299ZM23.25 19.3749V23.2499H19.375V25.8333H23.25V29.7083H25.8334V25.8333H29.7084V23.2499H25.8334V19.3749H23.25Z" fill="black"/>
</svg>
