<svg width="25" height="25" viewBox="0 0 25 25" fill="none" xmlns="http://www.w3.org/2000/svg">
<path fill-rule="evenodd" clip-rule="evenodd" d="M14.8739 2.24171C14.4885 2.08337 13.9989 2.08337 13.0208 2.08337C12.0427 2.08337 11.5541 2.08337 11.1677 2.24171C10.9134 2.34561 10.6822 2.49877 10.4873 2.69238C10.2924 2.88599 10.1378 3.11622 10.0323 3.36983C9.93434 3.60212 9.89684 3.874 9.88121 4.26879C9.87378 4.55473 9.79378 4.83408 9.64874 5.08062C9.5037 5.32715 9.29837 5.53277 9.05205 5.67817C8.80074 5.81786 8.51824 5.89186 8.23072 5.89332C7.9432 5.89477 7.65997 5.82364 7.40725 5.6865C7.05517 5.50108 6.79996 5.399 6.54788 5.36567C5.9964 5.29371 5.43878 5.44191 4.9958 5.77817C4.66455 6.03025 4.41975 6.45108 3.93121 7.29171C3.44163 8.13233 3.19788 8.55212 3.14267 8.96358C3.06975 9.5115 3.21975 10.0657 3.55934 10.5042C3.7135 10.7042 3.93121 10.8719 4.26767 11.0823C4.76455 11.3917 5.0833 11.9188 5.0833 12.5C5.0833 13.0813 4.76455 13.6084 4.26871 13.9167C3.93121 14.1282 3.7135 14.2959 3.5583 14.4959C3.39118 14.7128 3.26845 14.9605 3.19714 15.2248C3.12582 15.4892 3.10731 15.765 3.14267 16.0365C3.19788 16.4469 3.44163 16.8677 3.93121 17.7084C4.4208 18.549 4.66455 18.9688 4.9958 19.2219C5.43746 19.5584 5.9958 19.7063 6.54788 19.6344C6.79996 19.6011 7.05517 19.499 7.40725 19.3136C7.66009 19.1763 7.94352 19.105 8.23124 19.1065C8.51896 19.1079 8.80165 19.182 9.05309 19.3219C9.55934 19.6136 9.85934 20.15 9.88121 20.7313C9.89684 21.1271 9.93434 21.398 10.0323 21.6302C10.2448 22.1407 10.6531 22.5469 11.1677 22.7584C11.5531 22.9167 12.0427 22.9167 13.0208 22.9167C13.9989 22.9167 14.4885 22.9167 14.8739 22.7584C15.1282 22.6545 15.3594 22.5013 15.5543 22.3077C15.7492 22.1141 15.9038 21.8839 16.0093 21.6302C16.1073 21.398 16.1448 21.1271 16.1604 20.7313C16.1812 20.15 16.4823 19.6125 16.9895 19.3219C17.2409 19.1822 17.5234 19.1082 17.8109 19.1068C18.0984 19.1053 18.3816 19.1764 18.6343 19.3136C18.9864 19.499 19.2416 19.6011 19.4937 19.6344C20.0458 19.7073 20.6041 19.5584 21.0458 19.2219C21.377 18.9698 21.6218 18.549 22.1104 17.7084C22.6 16.8677 22.8437 16.448 22.8989 16.0365C22.9341 15.7649 22.9155 15.4891 22.844 15.2247C22.7725 14.9603 22.6496 14.7127 22.4823 14.4959C22.3281 14.2959 22.1104 14.1282 21.7739 13.9177C21.277 13.6084 20.9583 13.0813 20.9583 12.5C20.9583 11.9188 21.277 11.3917 21.7729 11.0834C22.1104 10.8719 22.3281 10.7042 22.4833 10.5042C22.6504 10.2873 22.7731 10.0396 22.8445 9.77526C22.9158 9.51091 22.9343 9.23509 22.8989 8.96358C22.8437 8.55316 22.6 8.13233 22.1104 7.29171C21.6208 6.45108 21.377 6.03129 21.0458 5.77817C20.6028 5.44191 20.0452 5.29371 19.4937 5.36567C19.2416 5.399 18.9864 5.50108 18.6343 5.6865C18.3815 5.82382 18.0981 5.89506 17.8104 5.8936C17.5226 5.89214 17.2399 5.81804 16.9885 5.67817C16.7424 5.53265 16.5373 5.32697 16.3924 5.08044C16.2475 4.83392 16.1677 4.55463 16.1604 4.26879C16.1448 3.87296 16.1073 3.60212 16.0093 3.36983C15.9038 3.11622 15.7492 2.88599 15.5543 2.69238C15.3594 2.49877 15.1282 2.34561 14.8739 2.24171ZM13.0208 15.625C14.7604 15.625 16.1698 14.2261 16.1698 12.5C16.1698 10.774 14.7593 9.37504 13.0208 9.37504C11.2823 9.37504 9.87184 10.774 9.87184 12.5C9.87184 14.2261 11.2823 15.625 13.0208 15.625Z" fill="black"/>
</svg>
