<svg width="35" height="35" viewBox="0 0 35 35" fill="none" xmlns="http://www.w3.org/2000/svg">
<path d="M28.4375 23.3333H9.47921L5.83337 8.75H32.0834L28.4375 23.3333Z" fill="black"/>
<path d="M2.1875 4.375H4.73958L5.83333 8.75M5.83333 8.75L9.47917 23.3333H28.4375L32.0833 8.75H5.83333Z" stroke="black" stroke-width="2" stroke-linecap="round" stroke-linejoin="round"/>
<path d="M9.47913 30.625C10.6872 30.625 11.6666 29.6456 11.6666 28.4375C11.6666 27.2294 10.6872 26.25 9.47913 26.25C8.271 26.25 7.29163 27.2294 7.29163 28.4375C7.29163 29.6456 8.271 30.625 9.47913 30.625Z" stroke="black" stroke-width="2" stroke-linecap="round" stroke-linejoin="round"/>
<path d="M28.4375 30.625C29.6456 30.625 30.625 29.6456 30.625 28.4375C30.625 27.2294 29.6456 26.25 28.4375 26.25C27.2294 26.25 26.25 27.2294 26.25 28.4375C26.25 29.6456 27.2294 30.625 28.4375 30.625Z" stroke="black" stroke-width="2" stroke-linecap="round" stroke-linejoin="round"/>
</svg>
