<svg width="223" height="223" viewBox="0 0 223 223" fill="none" xmlns="http://www.w3.org/2000/svg">
<path d="M186.628 222.024H17.76C8.03742 222.024 0.127529 215.447 0.127529 207.363V26.2852C0.127516 22.3935 1.9839 18.6608 5.28945 15.9057C8.59499 13.1507 13.0798 11.5984 17.76 11.5893H20.1082C20.3913 11.5887 20.6715 11.6367 20.9313 11.7302C21.1911 11.8236 21.4249 11.9606 21.6182 12.1326C21.8115 12.3046 21.9601 12.5078 22.0547 12.7297C22.1493 12.9515 22.1879 13.1872 22.1681 13.422C22.1187 13.953 22.0857 14.3161 22.0857 14.7066V195.784C22.0955 198.768 23.528 201.626 26.0689 203.732C28.6098 205.839 32.0517 207.021 35.6396 207.02H202.159C202.448 207.02 202.734 207.07 202.998 207.167C203.262 207.265 203.498 207.407 203.692 207.586C203.885 207.764 204.031 207.974 204.121 208.202C204.21 208.431 204.241 208.672 204.211 208.911C203.755 212.52 201.705 215.86 198.456 218.283C195.207 220.706 190.992 222.039 186.628 222.024ZM17.76 15.0149C14.1724 15.024 10.7355 16.2154 8.20254 18.328C5.66959 20.4406 4.24724 23.302 4.24726 26.2852V207.363C4.25162 210.342 5.67668 213.197 8.20986 215.304C10.743 217.41 14.1775 218.595 17.76 218.599H186.628C189.574 218.608 192.443 217.817 194.799 216.345C197.154 214.873 198.867 212.802 199.675 210.446H35.6437C30.9635 210.446 26.4744 208.902 23.1611 206.154C19.8479 203.405 17.981 199.676 17.9701 195.784V15.0149H17.76Z" fill="black"/>
<path d="M204.474 210.46H35.6231C30.9422 210.455 26.4546 208.907 23.1451 206.154C19.8356 203.401 17.9744 199.67 17.9701 195.777V14.7032C17.9755 10.8115 19.8372 7.08059 23.1466 4.32878C26.456 1.57696 30.9429 0.0290025 35.6231 0.0244694H159.281C159.82 0.0245347 160.338 0.20041 160.723 0.514331L221.51 49.9595C221.705 50.119 221.861 50.3093 221.967 50.5192C222.073 50.7292 222.127 50.9547 222.128 51.1825V195.777C222.123 199.67 220.262 203.401 216.952 206.154C213.643 208.907 209.155 210.455 204.474 210.46ZM35.6231 3.45008C32.0352 3.4537 28.5955 4.64046 26.0585 6.75004C23.5214 8.85963 22.0942 11.7198 22.0898 14.7032V195.781C22.0953 198.764 23.5228 201.624 26.0597 203.733C28.5965 205.842 32.0355 207.029 35.6231 207.034H204.474C208.063 207.03 211.504 205.843 214.042 203.733C216.58 201.623 218.008 198.762 218.012 195.777V51.9019L158.441 3.4535L35.6231 3.45008Z" fill="black"/>
<path d="M220.072 52.8953H174.874C170.194 52.8908 165.707 51.3428 162.398 48.591C159.088 45.8392 157.227 42.1082 157.221 38.2166V1.73385C157.222 1.39686 157.342 1.06757 157.567 0.787205C157.792 0.506841 158.111 0.28786 158.485 0.157677C158.859 0.0274944 159.271 -0.00810494 159.669 0.0553356C160.067 0.118776 160.433 0.278438 160.723 0.514332L221.51 49.9595C221.802 50.1977 222.002 50.5028 222.085 50.8359C222.167 51.1691 222.129 51.5152 221.974 51.8301C221.82 52.145 221.556 52.4145 221.216 52.6042C220.877 52.7939 220.481 52.8952 220.072 52.8953ZM161.341 5.80689V38.2166C161.345 41.2 162.772 44.0601 165.31 46.1697C167.847 48.2793 171.286 49.4661 174.874 49.4697H215.021L161.341 5.80689ZM64.3088 22.7225H39.6934C39.2783 22.7182 38.8665 22.785 38.4838 22.9188C38.101 23.0526 37.7555 23.2505 37.4688 23.5002C36.8939 23.9964 36.5771 24.661 36.5872 25.35C36.5827 25.69 36.6601 26.0274 36.8147 26.3422C36.9693 26.6571 37.198 26.9431 37.4874 27.1834C37.7768 27.4237 38.121 27.6135 38.4998 27.7416C38.8787 27.8697 39.2845 27.9336 39.6934 27.9295H48.7486V50.6275C48.7486 51.3709 49.0782 52.0355 49.6961 52.5459C50.31 53.0597 51.1092 53.3338 52.0032 53.3338C52.8889 53.3338 53.6923 53.0666 54.3226 52.5596C54.6393 52.312 54.8907 52.0124 55.0609 51.6799C55.2311 51.3473 55.3164 50.9889 55.3113 50.6275V27.9295H64.313C65.1418 27.9389 65.9415 27.6754 66.5376 27.1964C66.8375 26.9579 67.075 26.6705 67.2352 26.3522C67.3954 26.0339 67.4749 25.6916 67.4687 25.3466C67.4687 24.6272 67.1515 23.9866 66.55 23.4865C65.9485 22.9863 65.1699 22.7225 64.3088 22.7225ZM102.808 48.9764L100.134 46.8525C100.876 45.9242 101.535 44.9582 102.079 43.975C102.311 43.6022 102.433 43.189 102.437 42.7692C102.445 42.4277 102.369 42.0885 102.211 41.773C102.054 41.4575 101.819 41.1727 101.522 40.9365C100.999 40.5333 100.328 40.2871 99.6167 40.2369C98.9055 40.1866 98.1944 40.3352 97.5963 40.659C97.1034 40.9288 96.7122 41.3088 96.4675 41.7552C96.1379 42.341 95.8371 42.8514 95.5529 43.2728L86.1393 35.894C85.1013 35.1094 84.1008 34.2912 83.1401 33.4413C82.6329 32.9876 82.2182 32.468 81.9125 31.9032C81.6412 31.3465 81.5094 30.7497 81.5252 30.1493C81.5252 29.3716 81.8836 28.7071 82.621 28.1144C84.0918 26.936 87.0168 26.8744 89.9706 28.2035C91.3137 28.7619 92.4919 28.5118 93.3076 27.7993C93.8058 27.3713 94.0837 26.7986 94.0821 26.203C94.0788 25.782 93.9269 25.3711 93.6454 25.0211C93.4191 24.71 93.1071 24.4482 92.735 24.2572C88.4093 21.8593 83.5397 21.8285 80.1698 23.3768C78.6043 24.0962 77.389 25.0896 76.5568 26.316C75.7329 27.5389 75.3126 28.8955 75.3126 30.3582C75.3126 31.6565 75.601 32.8281 76.1778 33.8455C76.598 34.5854 77.1665 35.3562 77.8751 36.1406C76.6647 36.9379 75.5942 37.8718 74.6947 38.9154C73.4011 40.3884 72.7419 42.1697 72.7419 44.2079C72.7419 45.7974 73.2075 47.3184 74.1303 48.7297C75.0613 50.1582 76.5403 51.3332 78.526 52.217C80.4829 53.0905 82.9589 53.5324 85.8839 53.5324C87.919 53.5324 89.88 53.2241 91.7092 52.6075C93.2232 52.0987 94.65 51.4261 95.9525 50.607L98.6303 52.7309C99.9033 53.7072 102.021 53.6558 103.108 52.6795C103.643 52.1982 103.934 51.5637 103.92 50.9084C103.932 50.5027 103.817 50.1013 103.586 49.7437C103.381 49.4543 103.119 49.195 102.812 48.9764H102.808ZM91.4949 47.1334C89.7266 48.1387 87.6304 48.6695 85.4884 48.6544C83.6057 48.6544 82.0814 48.2433 80.8248 47.3869C80.2609 47.0297 79.8065 46.5667 79.4986 46.0357C79.1908 45.5046 79.0382 44.9206 79.0534 44.3313C79.0534 43.2111 79.3829 42.2656 80.0586 41.4435C80.5919 40.7908 81.2421 40.2097 81.9866 39.7204L91.4949 47.1334ZM136.281 46.4175C134.905 47.0135 133.541 47.4794 132.227 47.7911C130.754 48.1148 129.235 48.2693 127.712 48.2502C125.075 48.2502 122.813 47.798 120.988 46.9073C119.219 46.0624 117.794 44.7982 116.893 43.2762C115.962 41.721 115.492 39.9191 115.492 37.9254C115.492 35.9317 115.962 34.1298 116.893 32.5712C117.799 31.0468 119.18 29.8273 120.988 28.94C122.813 28.0494 125.075 27.6006 127.712 27.6006C129.413 27.6006 130.933 27.7548 132.223 28.0596C133.533 28.3748 134.9 28.8338 136.297 29.4402C136.873 29.6716 137.522 29.7497 138.153 29.6639C138.785 29.5781 139.37 29.3325 139.828 28.9606C140.356 28.5123 140.652 27.9096 140.652 27.282C140.652 26.2475 140.095 25.4493 139.045 24.9697C137.312 24.1473 135.474 23.4878 133.566 23.0034C131.516 22.5219 129.393 22.2888 127.262 22.3115C123.814 22.3115 120.663 22.9486 117.898 24.2058C115.12 25.4686 112.835 27.3672 111.315 29.6765C109.737 32.0265 108.934 34.8012 108.934 37.9254C108.934 41.0495 109.737 43.8243 111.315 46.1742C112.835 48.4836 115.12 50.3821 117.898 51.6449C120.659 52.9021 123.814 53.5393 127.267 53.5393C129.397 53.5617 131.52 53.3287 133.57 52.8473C135.395 52.3917 137.236 51.7306 139.033 50.8845C139.539 50.6669 139.961 50.3339 140.248 49.9245C140.536 49.515 140.677 49.046 140.656 48.5722C140.66 48.254 140.586 47.9383 140.441 47.6441C140.295 47.3499 140.079 47.083 139.807 46.8594C139.343 46.4968 138.757 46.26 138.127 46.1805C137.497 46.101 136.853 46.1824 136.281 46.414V46.4175ZM71.7367 103.56H47.3314C44.9574 103.557 42.6817 102.772 41.0034 101.376C39.3252 99.9794 38.3814 98.0867 38.3792 96.1127V75.8194C38.3792 73.843 39.3215 71.9472 40.9995 70.5474C42.6776 69.1476 44.9545 68.358 47.3314 68.3516H71.7367C74.1143 68.3571 76.3924 69.1463 78.0713 70.5462C79.7502 71.9461 80.693 73.8424 80.693 75.8194V96.1127C80.6908 98.0873 79.7465 99.9805 78.0674 101.377C76.3882 102.773 74.1114 103.558 71.7367 103.56ZM47.3314 71.7738C44.666 71.7738 42.499 73.5894 42.499 75.8194V96.1127C42.499 98.3325 44.666 100.134 47.3314 100.134H71.7367C74.4022 100.134 76.5733 98.3325 76.5733 96.1127V75.8194C76.5733 73.5894 74.4022 71.7772 71.7367 71.7772L47.3314 71.7738ZM199.663 76.5285H124.432C123.886 76.5285 123.362 76.3481 122.976 76.0269C122.589 75.7057 122.372 75.27 122.372 74.8157C122.372 74.3615 122.589 73.9258 122.976 73.6046C123.362 73.2834 123.886 73.1029 124.432 73.1029H199.663C200.209 73.1029 200.733 73.2834 201.119 73.6046C201.505 73.9258 201.722 74.3615 201.722 74.8157C201.722 75.27 201.505 75.7057 201.119 76.0269C200.733 76.3481 200.209 76.5285 199.663 76.5285ZM111.962 76.5285H96.1008C95.5545 76.5285 95.0306 76.3481 94.6443 76.0269C94.258 75.7057 94.0409 75.27 94.0409 74.8157C94.0409 74.3615 94.258 73.9258 94.6443 73.6046C95.0306 73.2834 95.5545 73.1029 96.1008 73.1029H111.962C112.508 73.1029 113.032 73.2834 113.418 73.6046C113.805 73.9258 114.022 74.3615 114.022 74.8157C114.022 75.27 113.805 75.7057 113.418 76.0269C113.032 76.3481 112.508 76.5285 111.962 76.5285ZM199.663 87.6652H167.216C166.669 87.6652 166.145 87.4847 165.759 87.1635C165.373 86.8423 165.156 86.4067 165.156 85.9524C165.156 85.4981 165.373 85.0625 165.759 84.7413C166.145 84.42 166.669 84.2396 167.216 84.2396H199.663C200.209 84.2396 200.733 84.42 201.119 84.7413C201.505 85.0625 201.722 85.4981 201.722 85.9524C201.722 86.4067 201.505 86.8423 201.119 87.1635C200.733 87.4847 200.209 87.6652 199.663 87.6652ZM151.915 87.6652H96.0967C95.5504 87.6652 95.0264 87.4847 94.6401 87.1635C94.2538 86.8423 94.0368 86.4067 94.0368 85.9524C94.0368 85.4981 94.2538 85.0625 94.6401 84.7413C95.0264 84.42 95.5504 84.2396 96.0967 84.2396H151.919C152.465 84.2396 152.989 84.42 153.376 84.7413C153.762 85.0625 153.979 85.4981 153.979 85.9524C153.979 86.4067 153.762 86.8423 153.376 87.1635C152.989 87.4847 152.461 87.6652 151.915 87.6652ZM165.514 98.8053H134.064C133.518 98.8053 132.994 98.6248 132.608 98.3036C132.221 97.9824 132.004 97.5467 132.004 97.0925C132.004 96.6382 132.221 96.2025 132.608 95.8813C132.994 95.5601 133.518 95.3797 134.064 95.3797H165.514C166.06 95.3797 166.584 95.5601 166.971 95.8813C167.357 96.2025 167.574 96.6382 167.574 97.0925C167.574 97.5467 167.357 97.9824 166.971 98.3036C166.584 98.6248 166.06 98.8053 165.514 98.8053ZM121.594 98.8053H96.0967C95.5504 98.8053 95.0264 98.6248 94.6401 98.3036C94.2538 97.9824 94.0368 97.5467 94.0368 97.0925C94.0368 96.6382 94.2538 96.2025 94.6401 95.8813C95.0264 95.5601 95.5504 95.3797 96.0967 95.3797H121.598C122.144 95.3797 122.668 95.5601 123.054 95.8813C123.441 96.2025 123.658 96.6382 123.658 97.0925C123.658 97.5467 123.441 97.9824 123.054 98.3036C122.668 98.6248 122.14 98.8053 121.594 98.8053Z" fill="black"/>
<path d="M56.2712 91.8033C56.0002 91.8037 55.7318 91.7593 55.4814 91.6729C55.2311 91.5865 55.0039 91.4596 54.8129 91.2998L51.3935 88.4565C51.189 88.3003 51.0247 88.1113 50.9103 87.9008C50.796 87.6904 50.7339 87.463 50.728 87.2321C50.722 87.0013 50.7723 86.7718 50.8757 86.5575C50.9791 86.3432 51.1336 86.1485 51.3298 85.9852C51.526 85.8218 51.7599 85.6931 52.0175 85.6068C52.2751 85.5205 52.551 85.4784 52.8286 85.483C53.1062 85.4876 53.3799 85.5388 53.6331 85.6336C53.8863 85.7284 54.1138 85.8648 54.302 86.0346L56.2712 87.6686L64.762 80.605C64.952 80.4414 65.1793 80.3109 65.4306 80.2212C65.6819 80.1314 65.9522 80.0842 66.2257 80.0822C66.4993 80.0802 66.7705 80.1235 67.0236 80.2097C67.2768 80.2958 67.5068 80.423 67.7002 80.5838C67.8936 80.7446 68.0465 80.9358 68.1501 81.1463C68.2537 81.3568 68.3058 81.5824 68.3034 81.8098C68.3011 82.0372 68.2442 82.262 68.1363 82.471C68.0283 82.6799 67.8714 82.8689 67.6747 83.0269L57.7255 91.2998C57.535 91.4592 57.3084 91.5858 57.0588 91.6722C56.8092 91.7587 56.5416 91.8032 56.2712 91.8033ZM71.7367 146.719H47.3314C44.9582 146.717 42.683 145.931 41.0049 144.536C39.3267 143.141 38.3825 141.249 38.3792 139.275V118.982C38.3792 117.006 39.3215 115.11 40.9995 113.71C42.6776 112.31 44.9545 111.521 47.3314 111.514H71.7367C74.1143 111.52 76.3924 112.309 78.0713 113.709C79.7502 115.109 80.693 117.005 80.693 118.982V139.275C80.6908 141.25 79.7465 143.143 78.0674 144.539C76.3882 145.936 74.1114 146.721 71.7367 146.723V146.719ZM47.3314 114.936C44.666 114.936 42.499 116.752 42.499 118.982V139.275C42.499 141.492 44.666 143.297 47.3314 143.297H71.7367C74.4022 143.297 76.5733 141.492 76.5733 139.275V118.982C76.5733 116.755 74.4022 114.94 71.7367 114.94H47.3314V114.936ZM199.663 119.691H124.432C123.886 119.691 123.362 119.511 122.976 119.19C122.589 118.868 122.372 118.433 122.372 117.978C122.372 117.524 122.589 117.088 122.976 116.767C123.362 116.446 123.886 116.266 124.432 116.266H199.663C200.209 116.266 200.733 116.446 201.119 116.767C201.505 117.088 201.723 117.524 201.723 117.978C201.723 118.433 201.505 118.868 201.119 119.19C200.733 119.511 200.209 119.691 199.663 119.691ZM111.962 119.691H96.1008C95.5545 119.691 95.0306 119.511 94.6443 119.19C94.258 118.868 94.0409 118.433 94.0409 117.978C94.0409 117.524 94.258 117.088 94.6443 116.767C95.0306 116.446 95.5545 116.266 96.1008 116.266H111.962C112.508 116.266 113.032 116.446 113.418 116.767C113.805 117.088 114.022 117.524 114.022 117.978C114.022 118.433 113.805 118.868 113.418 119.19C113.032 119.511 112.508 119.691 111.962 119.691ZM199.663 130.828H167.216C166.669 130.828 166.145 130.647 165.759 130.326C165.373 130.005 165.156 129.569 165.156 129.115C165.156 128.661 165.373 128.225 165.759 127.904C166.145 127.583 166.669 127.402 167.216 127.402H199.663C200.209 127.402 200.733 127.583 201.119 127.904C201.505 128.225 201.723 128.661 201.723 129.115C201.723 129.569 201.505 130.005 201.119 130.326C200.733 130.647 200.209 130.828 199.663 130.828ZM151.915 130.828H96.0967C95.5504 130.828 95.0264 130.647 94.6401 130.326C94.2538 130.005 94.0368 129.569 94.0368 129.115C94.0368 128.661 94.2538 128.225 94.6401 127.904C95.0264 127.583 95.5504 127.402 96.0967 127.402H151.919C152.465 127.402 152.989 127.583 153.376 127.904C153.762 128.225 153.979 128.661 153.979 129.115C153.979 129.569 153.762 130.005 153.376 130.326C152.989 130.647 152.461 130.828 151.915 130.828ZM165.514 141.968H134.064C133.518 141.968 132.994 141.787 132.608 141.466C132.221 141.145 132.004 140.709 132.004 140.255C132.004 139.801 132.221 139.365 132.608 139.044C132.994 138.723 133.518 138.542 134.064 138.542H165.514C166.06 138.542 166.584 138.723 166.971 139.044C167.357 139.365 167.574 139.801 167.574 140.255C167.574 140.709 167.357 141.145 166.971 141.466C166.584 141.787 166.06 141.968 165.514 141.968ZM121.594 141.968H96.0967C95.5504 141.968 95.0264 141.787 94.6401 141.466C94.2538 141.145 94.0368 140.709 94.0368 140.255C94.0368 139.801 94.2538 139.365 94.6401 139.044C95.0264 138.723 95.5504 138.542 96.0967 138.542H121.598C122.144 138.542 122.668 138.723 123.054 139.044C123.441 139.365 123.658 139.801 123.658 140.255C123.658 140.709 123.441 141.145 123.054 141.466C122.668 141.787 122.14 141.968 121.594 141.968Z" fill="black"/>
<path d="M56.2712 134.966C56.0005 134.967 55.7322 134.923 55.4819 134.837C55.2316 134.751 55.0042 134.625 54.8129 134.466L51.3935 131.616C51.189 131.46 51.0247 131.27 50.9103 131.06C50.796 130.85 50.7339 130.622 50.728 130.391C50.722 130.161 50.7723 129.931 50.8757 129.717C50.9791 129.502 51.1336 129.308 51.3298 129.144C51.526 128.981 51.7599 128.852 52.0175 128.766C52.2751 128.68 52.551 128.638 52.8286 128.642C53.1062 128.647 53.3799 128.698 53.6331 128.793C53.8863 128.888 54.1138 129.024 54.302 129.194L56.2712 130.831L64.762 123.768C64.952 123.604 65.1793 123.474 65.4306 123.384C65.6819 123.294 65.9522 123.247 66.2257 123.245C66.4993 123.243 66.7705 123.286 67.0236 123.372C67.2768 123.458 67.5068 123.586 67.7002 123.746C67.8936 123.907 68.0465 124.099 68.1501 124.309C68.2537 124.519 68.3058 124.745 68.3034 124.972C68.3011 125.2 68.2442 125.425 68.1363 125.634C68.0283 125.843 67.8714 126.032 67.6747 126.19L57.7255 134.466C57.5346 134.625 57.3079 134.751 57.0583 134.836C56.8088 134.922 56.5413 134.966 56.2712 134.966ZM71.7367 189.882H47.3314C44.9582 189.879 42.683 189.094 41.0049 187.699C39.3267 186.303 38.3825 184.411 38.3792 182.438V162.145C38.3792 160.168 39.3215 158.272 40.9995 156.873C42.6776 155.473 44.9545 154.683 47.3314 154.677H71.7367C74.1143 154.682 76.3924 155.472 78.0713 156.871C79.7502 158.271 80.693 160.168 80.693 162.145V182.438C80.6908 184.413 79.7465 186.306 78.0674 187.702C76.3882 189.098 74.1114 189.88 71.7367 189.882ZM47.3314 158.099C44.666 158.099 42.499 159.915 42.499 162.145V182.438C42.499 184.654 44.666 186.46 47.3314 186.46H71.7367C74.4022 186.46 76.5733 184.654 76.5733 182.438V162.145C76.5733 159.918 74.4022 158.103 71.7367 158.103L47.3314 158.099ZM199.663 162.854H124.432C123.886 162.854 123.362 162.673 122.976 162.352C122.589 162.031 122.372 161.595 122.372 161.141C122.372 160.687 122.589 160.251 122.976 159.93C123.362 159.609 123.886 159.428 124.432 159.428H199.663C200.209 159.428 200.733 159.609 201.119 159.93C201.505 160.251 201.723 160.687 201.723 161.141C201.723 161.595 201.505 162.031 201.119 162.352C200.733 162.673 200.209 162.854 199.663 162.854ZM111.962 162.854H96.1008C95.5545 162.854 95.0306 162.673 94.6443 162.352C94.258 162.031 94.0409 161.595 94.0409 161.141C94.0409 160.687 94.258 160.251 94.6443 159.93C95.0306 159.609 95.5545 159.428 96.1008 159.428H111.962C112.508 159.428 113.032 159.609 113.418 159.93C113.805 160.251 114.022 160.687 114.022 161.141C114.022 161.595 113.805 162.031 113.418 162.352C113.032 162.673 112.508 162.854 111.962 162.854ZM199.663 173.994H167.216C166.669 173.994 166.145 173.813 165.759 173.492C165.373 173.171 165.156 172.735 165.156 172.281C165.156 171.827 165.373 171.391 165.759 171.07C166.145 170.749 166.669 170.568 167.216 170.568H199.663C200.209 170.568 200.733 170.749 201.119 171.07C201.505 171.391 201.723 171.827 201.723 172.281C201.723 172.735 201.505 173.171 201.119 173.492C200.733 173.813 200.209 173.994 199.663 173.994ZM151.915 173.994H96.0967C95.5504 173.994 95.0264 173.813 94.6401 173.492C94.2538 173.171 94.0368 172.735 94.0368 172.281C94.0368 171.827 94.2538 171.391 94.6401 171.07C95.0264 170.749 95.5504 170.568 96.0967 170.568H151.919C152.465 170.568 152.989 170.749 153.376 171.07C153.762 171.391 153.979 171.827 153.979 172.281C153.979 172.735 153.762 173.171 153.376 173.492C152.989 173.813 152.461 173.994 151.915 173.994ZM165.514 185.131H134.064C133.518 185.131 132.994 184.95 132.608 184.629C132.221 184.308 132.004 183.872 132.004 183.418C132.004 182.964 132.221 182.528 132.608 182.207C132.994 181.885 133.518 181.705 134.064 181.705H165.514C166.06 181.705 166.584 181.885 166.971 182.207C167.357 182.528 167.574 182.964 167.574 183.418C167.574 183.872 167.357 184.308 166.971 184.629C166.584 184.95 166.06 185.131 165.514 185.131ZM121.594 185.131H96.0967C95.5504 185.131 95.0264 184.95 94.6401 184.629C94.2538 184.308 94.0368 183.872 94.0368 183.418C94.0368 182.964 94.2538 182.528 94.6401 182.207C95.0264 181.885 95.5504 181.705 96.0967 181.705H121.598C122.144 181.705 122.668 181.885 123.054 182.207C123.441 182.528 123.658 182.964 123.658 183.418C123.658 183.872 123.441 184.308 123.054 184.629C122.668 184.95 122.14 185.131 121.594 185.131Z" fill="black"/>
<path d="M56.2712 178.132C56.0002 178.132 55.7318 178.088 55.4814 178.002C55.2311 177.915 55.0039 177.788 54.8128 177.628L51.3935 174.782C51.189 174.626 51.0247 174.437 50.9103 174.226C50.7959 174.016 50.7339 173.788 50.728 173.557C50.722 173.327 50.7723 173.097 50.8757 172.883C50.9791 172.669 51.1336 172.474 51.3298 172.31C51.526 172.147 51.7599 172.018 52.0175 171.932C52.2751 171.846 52.551 171.804 52.8286 171.808C53.1062 171.813 53.3799 171.864 53.6331 171.959C53.8863 172.054 54.1138 172.19 54.302 172.36L56.2712 173.994L64.762 166.934C64.952 166.77 65.1793 166.64 65.4306 166.55C65.6819 166.46 65.9522 166.413 66.2257 166.411C66.4992 166.409 66.7705 166.452 67.0236 166.538C67.2768 166.625 67.5068 166.752 67.7002 166.913C67.8936 167.073 68.0465 167.265 68.1501 167.475C68.2537 167.686 68.3058 167.911 68.3034 168.139C68.3011 168.366 68.2442 168.591 68.1363 168.8C68.0283 169.009 67.8714 169.198 67.6747 169.356L57.7255 177.628C57.5346 177.787 57.3079 177.913 57.0583 177.999C56.8088 178.085 56.5413 178.132 56.2712 178.132Z" fill="black"/>
</svg>
