<svg width="52" height="42" viewBox="0 0 52 42" fill="none" xmlns="http://www.w3.org/2000/svg">
<path d="M27.875 9.875C27.875 12.3614 26.8873 14.746 25.1291 16.5041C23.371 18.2623 20.9864 19.25 18.5 19.25C16.0136 19.25 13.629 18.2623 11.8709 16.5041C10.1127 14.746 9.125 12.3614 9.125 9.875C9.125 7.3886 10.1127 5.00403 11.8709 3.24587C13.629 1.48772 16.0136 0.5 18.5 0.5C20.9864 0.5 23.371 1.48772 25.1291 3.24587C26.8873 5.00403 27.875 7.3886 27.875 9.875ZM36.875 38.0225C37.2875 40.055 35.57 41.75 33.5 41.75H3.5C1.42625 41.75 -0.287503 40.055 0.117497 38.0225C0.980183 33.7841 3.28114 29.974 6.63076 27.2375C9.98037 24.501 14.1728 23.0062 18.4981 23.0062C22.8234 23.0062 27.0159 24.501 30.3655 27.2375C33.7151 29.974 36.0161 33.7841 36.8787 38.0225M48.5075 38H42.545C42.5127 37.6353 42.4627 37.2723 42.395 36.9125C41.677 33.3748 40.1823 30.0408 38.0187 27.1513C40.7751 26.3908 43.7176 26.7083 46.2482 28.0395C48.7788 29.3706 50.7076 31.6153 51.6425 34.3175C52.3175 36.275 50.5812 38 48.5075 38ZM41 23C42.9891 23 44.8968 22.2098 46.3033 20.8033C47.7098 19.3968 48.5 17.4891 48.5 15.5C48.5 13.5109 47.7098 11.6032 46.3033 10.1967C44.8968 8.79018 42.9891 8 41 8C39.0109 8 37.1032 8.79018 35.6967 10.1967C34.2902 11.6032 33.5 13.5109 33.5 15.5C33.5 17.4891 34.2902 19.3968 35.6967 20.8033C37.1032 22.2098 39.0109 23 41 23Z" fill="black"/>
</svg>
