<svg width="14" height="12" viewBox="0 0 14 12" fill="none" xmlns="http://www.w3.org/2000/svg">
<mask id="path-1-inside-1_230_50" fill="white">
<path d="M11.4224 3.2187C11.3838 2.82086 11.2477 2.43866 11.0262 2.10591C10.8048 1.77315 10.5047 1.50009 10.1527 1.31087C9.80057 1.12165 9.40728 1.02209 9.00757 1.02101C8.60786 1.01992 8.21404 1.11734 7.86093 1.30465C7.42739 0.759396 6.83914 0.357937 6.17338 0.152955C5.50761 -0.0520277 4.79543 -0.0509563 4.13028 0.156029C3.46513 0.363013 2.8781 0.766242 2.4462 1.3128C2.01431 1.85936 1.75773 2.52372 1.71013 3.2187C1.22513 3.26819 0.777613 3.5019 0.459853 3.87164C0.142093 4.24137 -0.0216788 4.71894 0.00230698 5.20587C0.0262927 5.6928 0.236207 6.15196 0.588766 6.48868C0.941325 6.82539 1.40965 7.01399 1.89716 7.01558H11.2389C11.7261 7.01313 12.1939 6.82391 12.5458 6.48692C12.8977 6.14992 13.1069 5.6908 13.1304 5.20413C13.154 4.71746 12.99 4.2403 12.6722 3.87093C12.3544 3.50157 11.9071 3.26813 11.4224 3.2187ZM11.2389 6.52339H1.89716C1.5229 6.52339 1.16396 6.37471 0.899315 6.11007C0.634669 5.84542 0.485992 5.48648 0.485992 5.11222C0.485992 4.73795 0.634669 4.37901 0.899315 4.11437C1.16396 3.84972 1.5229 3.70105 1.89716 3.70105H1.94821C2.01347 3.70101 2.07604 3.67507 2.12218 3.62892C2.16833 3.58278 2.19427 3.52021 2.1943 3.45495C2.19399 2.82319 2.39564 2.20787 2.7698 1.69883C3.14396 1.18979 3.67104 0.813675 4.2741 0.625408C4.87716 0.437141 5.52461 0.446577 6.12192 0.652338C6.71923 0.858098 7.23514 1.24941 7.5943 1.76914C7.63092 1.82191 7.68673 1.85827 7.74979 1.87043C7.81286 1.8826 7.87819 1.86961 7.9318 1.83425C8.22442 1.64111 8.5639 1.53085 8.91416 1.51519C9.26442 1.49953 9.61238 1.57905 9.92106 1.74531C10.2297 1.91156 10.4876 2.15834 10.6673 2.45942C10.847 2.7605 10.9417 3.10462 10.9415 3.45523C10.9415 3.52049 10.9674 3.58306 11.0136 3.62921C11.0597 3.67535 11.1223 3.70129 11.1876 3.70133H11.2386C11.6129 3.70133 11.9718 3.85 12.2365 4.11465C12.5011 4.3793 12.6498 4.73823 12.6498 5.1125C12.6498 5.48676 12.5011 5.8457 12.2365 6.11035C11.9718 6.37499 11.6131 6.52339 11.2389 6.52339ZM11.9562 8.31776C11.6777 8.32732 11.4012 8.26806 11.1511 8.14522C11.122 8.13123 11.0904 8.12311 11.0582 8.12133C11.0259 8.11955 10.9936 8.12415 10.9631 8.13485C10.9326 8.14555 10.9046 8.16215 10.8805 8.1837C10.8564 8.20525 10.8368 8.23134 10.8228 8.26046C10.8089 8.28958 10.8007 8.32118 10.799 8.35343C10.7972 8.38569 10.8018 8.41799 10.8125 8.44847C10.8232 8.47896 10.8398 8.50703 10.8613 8.5311C10.8829 8.55517 10.909 8.57476 10.9381 8.58875C11.2547 8.74335 11.604 8.81923 11.9562 8.80995C12.0215 8.80995 12.0841 8.78402 12.1302 8.73787C12.1764 8.69172 12.2023 8.62913 12.2023 8.56386C12.2023 8.49859 12.1764 8.436 12.1302 8.38984C12.0841 8.34369 12.0215 8.31776 11.9562 8.31776ZM1.17984 8.24745C1.51851 8.23813 1.85277 8.32597 2.14312 8.50058C2.50399 8.71176 2.91632 8.81885 3.33435 8.80995C3.75243 8.81883 4.16479 8.71175 4.52573 8.50058C4.81631 8.32604 5.15073 8.23821 5.48957 8.24745C5.82842 8.23817 6.16285 8.326 6.45341 8.50058C6.81782 8.70338 7.22796 8.80981 7.645 8.80981C8.06204 8.80981 8.47218 8.70338 8.83659 8.50058C9.03427 8.38373 9.25219 8.30516 9.47896 8.26897C9.51122 8.26463 9.54231 8.25393 9.57041 8.2375C9.59851 8.22106 9.62307 8.19921 9.64266 8.17322C9.66226 8.14723 9.67651 8.1176 9.68458 8.08606C9.69265 8.05453 9.69438 8.0217 9.68967 7.98949C9.68496 7.95728 9.67391 7.92632 9.65716 7.89841C9.6404 7.8705 9.61828 7.84619 9.59206 7.82689C9.56584 7.80759 9.53606 7.79368 9.50443 7.78597C9.4728 7.77826 9.43996 7.77691 9.40781 7.78198C9.12665 7.82633 8.85607 7.9221 8.60962 8.0645C8.31549 8.23053 7.98346 8.31777 7.6457 8.31777C7.30795 8.31777 6.97592 8.23053 6.68179 8.0645C6.32081 7.8533 5.9084 7.74622 5.49027 7.75512C5.07215 7.74622 4.65973 7.8533 4.29876 8.0645C4.00824 8.23905 3.67386 8.32688 3.33505 8.31762C2.99634 8.32689 2.66205 8.23906 2.37163 8.0645C2.01081 7.85331 1.59853 7.74623 1.18054 7.75512C1.11527 7.75512 1.05268 7.78105 1.00652 7.8272C0.960373 7.87335 0.934445 7.93595 0.934445 8.00122C0.934445 8.06649 0.960373 8.12908 1.00652 8.17523C1.05268 8.22138 1.11457 8.24745 1.17984 8.24745ZM11.9562 9.78926C11.6173 9.79854 11.2828 9.71071 10.9922 9.53614C10.6278 9.33334 10.2176 9.2269 9.80057 9.2269C9.38351 9.2269 8.97335 9.33334 8.60891 9.53614C8.31478 9.70217 7.98276 9.78941 7.645 9.78941C7.30724 9.78941 6.97522 9.70217 6.68109 9.53614C6.32011 9.32495 5.90769 9.21786 5.48957 9.22676C5.4243 9.22676 5.36171 9.25269 5.31556 9.29884C5.2694 9.34499 5.24348 9.40759 5.24348 9.47286C5.24348 9.53813 5.2694 9.60072 5.31556 9.64687C5.36171 9.69302 5.4243 9.71895 5.48957 9.71895C5.82843 9.7096 6.16288 9.79744 6.45341 9.97208C6.81785 10.1748 7.22798 10.2812 7.645 10.2812C8.06202 10.2812 8.47215 10.1748 8.83659 9.97208C9.13071 9.80597 9.46278 9.71868 9.80057 9.71868C10.1384 9.71868 10.4704 9.80597 10.7646 9.97208C11.1256 10.1832 11.5381 10.2903 11.9562 10.2815C12.0215 10.2815 12.0841 10.2555 12.1302 10.2094C12.1764 10.1632 12.2023 10.1006 12.2023 10.0354C12.2023 9.97009 12.1764 9.90749 12.1302 9.86134C12.0841 9.81519 12.0215 9.78926 11.9562 9.78926ZM1.17984 9.71895C1.51851 9.70963 1.85277 9.79747 2.14312 9.97208C2.50401 10.1832 2.91632 10.2903 3.33435 10.2815C3.39962 10.2815 3.46221 10.2555 3.50837 10.2094C3.55452 10.1632 3.58045 10.1006 3.58045 10.0354C3.58045 9.97009 3.55452 9.90749 3.50837 9.86134C3.46221 9.81519 3.39962 9.78926 3.33435 9.78926C2.99564 9.79853 2.66134 9.7107 2.37093 9.53614C2.01011 9.32495 1.59782 9.21787 1.17984 9.22676C1.11457 9.22676 1.05197 9.25269 1.00582 9.29884C0.95967 9.34499 0.933742 9.40759 0.933742 9.47286C0.933742 9.53813 0.95967 9.60072 1.00582 9.64687C1.05197 9.69302 1.11457 9.71895 1.17984 9.71895ZM11.9562 11.2609C11.6173 11.2702 11.2828 11.1824 10.9922 11.0078C10.6312 10.7967 10.2187 10.6896 9.80057 10.6984C9.7353 10.6984 9.67271 10.7243 9.62656 10.7705C9.5804 10.8166 9.55448 10.8792 9.55448 10.9445C9.55448 11.0098 9.5804 11.0724 9.62656 11.1185C9.67271 11.1647 9.7353 11.1906 9.80057 11.1906C10.1395 11.1812 10.474 11.2691 10.7646 11.4437C11.1256 11.6549 11.538 11.762 11.9562 11.7531C12.0215 11.7531 12.0841 11.7272 12.1302 11.681C12.1764 11.6349 12.2023 11.5723 12.2023 11.507C12.2023 11.4417 12.1764 11.3791 12.1302 11.333C12.0841 11.2868 12.0215 11.2609 11.9562 11.2609ZM7.64493 11.2609C7.30607 11.2703 6.97162 11.1824 6.68109 11.0078C6.32008 10.7967 5.90768 10.6896 5.48957 10.6984C5.07146 10.6896 4.65906 10.7967 4.29805 11.0078C4.00756 11.1824 3.67316 11.2702 3.33435 11.2609C2.99563 11.2702 2.66132 11.1824 2.37093 11.0078C2.01008 10.7967 1.59782 10.6896 1.17984 10.6984C1.11457 10.6984 1.05197 10.7243 1.00582 10.7705C0.95967 10.8166 0.933742 10.8792 0.933742 10.9445C0.933742 11.0098 0.95967 11.0724 1.00582 11.1185C1.05197 11.1647 1.11457 11.1906 1.17984 11.1906C1.51851 11.1813 1.85277 11.2691 2.14312 11.4437C2.50399 11.6549 2.91632 11.762 3.33435 11.7531C3.75243 11.762 4.16479 11.6549 4.52573 11.4437C4.81628 11.2691 5.15072 11.1813 5.48957 11.1906C5.82843 11.1812 6.16288 11.2691 6.45341 11.4437C6.81439 11.6549 7.22681 11.762 7.64493 11.7531C7.7102 11.7531 7.77279 11.7272 7.81894 11.681C7.8651 11.6349 7.89102 11.5723 7.89102 11.507C7.89102 11.4417 7.8651 11.3791 7.81894 11.333C7.77279 11.2868 7.7102 11.2609 7.64493 11.2609Z"/>
</mask>
<path d="M11.4224 3.2187C11.3838 2.82086 11.2477 2.43866 11.0262 2.10591C10.8048 1.77315 10.5047 1.50009 10.1527 1.31087C9.80057 1.12165 9.40728 1.02209 9.00757 1.02101C8.60786 1.01992 8.21404 1.11734 7.86093 1.30465C7.42739 0.759396 6.83914 0.357937 6.17338 0.152955C5.50761 -0.0520277 4.79543 -0.0509563 4.13028 0.156029C3.46513 0.363013 2.8781 0.766242 2.4462 1.3128C2.01431 1.85936 1.75773 2.52372 1.71013 3.2187C1.22513 3.26819 0.777613 3.5019 0.459853 3.87164C0.142093 4.24137 -0.0216788 4.71894 0.00230698 5.20587C0.0262927 5.6928 0.236207 6.15196 0.588766 6.48868C0.941325 6.82539 1.40965 7.01399 1.89716 7.01558H11.2389C11.7261 7.01313 12.1939 6.82391 12.5458 6.48692C12.8977 6.14992 13.1069 5.6908 13.1304 5.20413C13.154 4.71746 12.99 4.2403 12.6722 3.87093C12.3544 3.50157 11.9071 3.26813 11.4224 3.2187ZM11.2389 6.52339H1.89716C1.5229 6.52339 1.16396 6.37471 0.899315 6.11007C0.634669 5.84542 0.485992 5.48648 0.485992 5.11222C0.485992 4.73795 0.634669 4.37901 0.899315 4.11437C1.16396 3.84972 1.5229 3.70105 1.89716 3.70105H1.94821C2.01347 3.70101 2.07604 3.67507 2.12218 3.62892C2.16833 3.58278 2.19427 3.52021 2.1943 3.45495C2.19399 2.82319 2.39564 2.20787 2.7698 1.69883C3.14396 1.18979 3.67104 0.813675 4.2741 0.625408C4.87716 0.437141 5.52461 0.446577 6.12192 0.652338C6.71923 0.858098 7.23514 1.24941 7.5943 1.76914C7.63092 1.82191 7.68673 1.85827 7.74979 1.87043C7.81286 1.8826 7.87819 1.86961 7.9318 1.83425C8.22442 1.64111 8.5639 1.53085 8.91416 1.51519C9.26442 1.49953 9.61238 1.57905 9.92106 1.74531C10.2297 1.91156 10.4876 2.15834 10.6673 2.45942C10.847 2.7605 10.9417 3.10462 10.9415 3.45523C10.9415 3.52049 10.9674 3.58306 11.0136 3.62921C11.0597 3.67535 11.1223 3.70129 11.1876 3.70133H11.2386C11.6129 3.70133 11.9718 3.85 12.2365 4.11465C12.5011 4.3793 12.6498 4.73823 12.6498 5.1125C12.6498 5.48676 12.5011 5.8457 12.2365 6.11035C11.9718 6.37499 11.6131 6.52339 11.2389 6.52339ZM11.9562 8.31776C11.6777 8.32732 11.4012 8.26806 11.1511 8.14522C11.122 8.13123 11.0904 8.12311 11.0582 8.12133C11.0259 8.11955 10.9936 8.12415 10.9631 8.13485C10.9326 8.14555 10.9046 8.16215 10.8805 8.1837C10.8564 8.20525 10.8368 8.23134 10.8228 8.26046C10.8089 8.28958 10.8007 8.32118 10.799 8.35343C10.7972 8.38569 10.8018 8.41799 10.8125 8.44847C10.8232 8.47896 10.8398 8.50703 10.8613 8.5311C10.8829 8.55517 10.909 8.57476 10.9381 8.58875C11.2547 8.74335 11.604 8.81923 11.9562 8.80995C12.0215 8.80995 12.0841 8.78402 12.1302 8.73787C12.1764 8.69172 12.2023 8.62913 12.2023 8.56386C12.2023 8.49859 12.1764 8.436 12.1302 8.38984C12.0841 8.34369 12.0215 8.31776 11.9562 8.31776ZM1.17984 8.24745C1.51851 8.23813 1.85277 8.32597 2.14312 8.50058C2.50399 8.71176 2.91632 8.81885 3.33435 8.80995C3.75243 8.81883 4.16479 8.71175 4.52573 8.50058C4.81631 8.32604 5.15073 8.23821 5.48957 8.24745C5.82842 8.23817 6.16285 8.326 6.45341 8.50058C6.81782 8.70338 7.22796 8.80981 7.645 8.80981C8.06204 8.80981 8.47218 8.70338 8.83659 8.50058C9.03427 8.38373 9.25219 8.30516 9.47896 8.26897C9.51122 8.26463 9.54231 8.25393 9.57041 8.2375C9.59851 8.22106 9.62307 8.19921 9.64266 8.17322C9.66226 8.14723 9.67651 8.1176 9.68458 8.08606C9.69265 8.05453 9.69438 8.0217 9.68967 7.98949C9.68496 7.95728 9.67391 7.92632 9.65716 7.89841C9.6404 7.8705 9.61828 7.84619 9.59206 7.82689C9.56584 7.80759 9.53606 7.79368 9.50443 7.78597C9.4728 7.77826 9.43996 7.77691 9.40781 7.78198C9.12665 7.82633 8.85607 7.9221 8.60962 8.0645C8.31549 8.23053 7.98346 8.31777 7.6457 8.31777C7.30795 8.31777 6.97592 8.23053 6.68179 8.0645C6.32081 7.8533 5.9084 7.74622 5.49027 7.75512C5.07215 7.74622 4.65973 7.8533 4.29876 8.0645C4.00824 8.23905 3.67386 8.32688 3.33505 8.31762C2.99634 8.32689 2.66205 8.23906 2.37163 8.0645C2.01081 7.85331 1.59853 7.74623 1.18054 7.75512C1.11527 7.75512 1.05268 7.78105 1.00652 7.8272C0.960373 7.87335 0.934445 7.93595 0.934445 8.00122C0.934445 8.06649 0.960373 8.12908 1.00652 8.17523C1.05268 8.22138 1.11457 8.24745 1.17984 8.24745ZM11.9562 9.78926C11.6173 9.79854 11.2828 9.71071 10.9922 9.53614C10.6278 9.33334 10.2176 9.2269 9.80057 9.2269C9.38351 9.2269 8.97335 9.33334 8.60891 9.53614C8.31478 9.70217 7.98276 9.78941 7.645 9.78941C7.30724 9.78941 6.97522 9.70217 6.68109 9.53614C6.32011 9.32495 5.90769 9.21786 5.48957 9.22676C5.4243 9.22676 5.36171 9.25269 5.31556 9.29884C5.2694 9.34499 5.24348 9.40759 5.24348 9.47286C5.24348 9.53813 5.2694 9.60072 5.31556 9.64687C5.36171 9.69302 5.4243 9.71895 5.48957 9.71895C5.82843 9.7096 6.16288 9.79744 6.45341 9.97208C6.81785 10.1748 7.22798 10.2812 7.645 10.2812C8.06202 10.2812 8.47215 10.1748 8.83659 9.97208C9.13071 9.80597 9.46278 9.71868 9.80057 9.71868C10.1384 9.71868 10.4704 9.80597 10.7646 9.97208C11.1256 10.1832 11.5381 10.2903 11.9562 10.2815C12.0215 10.2815 12.0841 10.2555 12.1302 10.2094C12.1764 10.1632 12.2023 10.1006 12.2023 10.0354C12.2023 9.97009 12.1764 9.90749 12.1302 9.86134C12.0841 9.81519 12.0215 9.78926 11.9562 9.78926ZM1.17984 9.71895C1.51851 9.70963 1.85277 9.79747 2.14312 9.97208C2.50401 10.1832 2.91632 10.2903 3.33435 10.2815C3.39962 10.2815 3.46221 10.2555 3.50837 10.2094C3.55452 10.1632 3.58045 10.1006 3.58045 10.0354C3.58045 9.97009 3.55452 9.90749 3.50837 9.86134C3.46221 9.81519 3.39962 9.78926 3.33435 9.78926C2.99564 9.79853 2.66134 9.7107 2.37093 9.53614C2.01011 9.32495 1.59782 9.21787 1.17984 9.22676C1.11457 9.22676 1.05197 9.25269 1.00582 9.29884C0.95967 9.34499 0.933742 9.40759 0.933742 9.47286C0.933742 9.53813 0.95967 9.60072 1.00582 9.64687C1.05197 9.69302 1.11457 9.71895 1.17984 9.71895ZM11.9562 11.2609C11.6173 11.2702 11.2828 11.1824 10.9922 11.0078C10.6312 10.7967 10.2187 10.6896 9.80057 10.6984C9.7353 10.6984 9.67271 10.7243 9.62656 10.7705C9.5804 10.8166 9.55448 10.8792 9.55448 10.9445C9.55448 11.0098 9.5804 11.0724 9.62656 11.1185C9.67271 11.1647 9.7353 11.1906 9.80057 11.1906C10.1395 11.1812 10.474 11.2691 10.7646 11.4437C11.1256 11.6549 11.538 11.762 11.9562 11.7531C12.0215 11.7531 12.0841 11.7272 12.1302 11.681C12.1764 11.6349 12.2023 11.5723 12.2023 11.507C12.2023 11.4417 12.1764 11.3791 12.1302 11.333C12.0841 11.2868 12.0215 11.2609 11.9562 11.2609ZM7.64493 11.2609C7.30607 11.2703 6.97162 11.1824 6.68109 11.0078C6.32008 10.7967 5.90768 10.6896 5.48957 10.6984C5.07146 10.6896 4.65906 10.7967 4.29805 11.0078C4.00756 11.1824 3.67316 11.2702 3.33435 11.2609C2.99563 11.2702 2.66132 11.1824 2.37093 11.0078C2.01008 10.7967 1.59782 10.6896 1.17984 10.6984C1.11457 10.6984 1.05197 10.7243 1.00582 10.7705C0.95967 10.8166 0.933742 10.8792 0.933742 10.9445C0.933742 11.0098 0.95967 11.0724 1.00582 11.1185C1.05197 11.1647 1.11457 11.1906 1.17984 11.1906C1.51851 11.1813 1.85277 11.2691 2.14312 11.4437C2.50399 11.6549 2.91632 11.762 3.33435 11.7531C3.75243 11.762 4.16479 11.6549 4.52573 11.4437C4.81628 11.2691 5.15072 11.1813 5.48957 11.1906C5.82843 11.1812 6.16288 11.2691 6.45341 11.4437C6.81439 11.6549 7.22681 11.762 7.64493 11.7531C7.7102 11.7531 7.77279 11.7272 7.81894 11.681C7.8651 11.6349 7.89102 11.5723 7.89102 11.507C7.89102 11.4417 7.8651 11.3791 7.81894 11.333C7.77279 11.2868 7.7102 11.2609 7.64493 11.2609Z" fill="black" stroke="black" stroke-width="60" mask="url(#path-1-inside-1_230_50)"/>
</svg>
