<svg width="18" height="18" viewBox="0 0 18 18" fill="none" xmlns="http://www.w3.org/2000/svg">
<path d="M14.8771 11.8245H3.9298C1.7629 11.8245 0 10.0616 0 7.89469C0 6.00418 1.33133 4.43741 3.09054 4.05485C3.17275 1.80504 5.02867 0 7.2982 0C9.00135 0 10.439 1.00154 11.1094 2.421C13.2933 1.77174 15.4723 3.43651 15.4381 5.70018C16.8738 5.96477 17.9648 7.22575 17.9648 8.73679C17.9648 10.4393 16.5797 11.8245 14.8771 11.8245ZM7.2982 1.1228C5.49341 1.1228 4.06215 2.6729 4.22299 4.48717C4.2505 4.79773 4.01927 5.07208 3.70752 5.09639C2.25813 5.20965 1.1228 6.4388 1.1228 7.89469C1.1228 9.44247 2.38202 10.7017 3.9298 10.7017H14.8771C15.9605 10.7017 16.842 9.82022 16.842 8.73679C16.842 7.71711 16.0439 6.77189 14.8208 6.77189C14.4666 6.77189 14.2 6.44687 14.2707 6.09877C14.6455 4.25331 12.7121 2.79595 11.0471 3.65029C10.7358 3.81001 10.3551 3.64886 10.2535 3.31359C9.86268 2.02371 8.64739 1.1228 7.2982 1.1228ZM10.9469 16.0351C10.5343 16.0351 10.2573 15.5982 10.4452 15.2225L11.568 12.9769C11.7066 12.6996 12.0439 12.5872 12.3212 12.7258C12.5985 12.8645 12.7109 13.2017 12.5722 13.479L11.4494 15.7246C11.3511 15.9214 11.1528 16.0351 10.9469 16.0351ZM15.9995 16.0351C15.5869 16.0351 15.3099 15.5982 15.4978 15.2225L16.6206 12.9769C16.7592 12.6996 17.0965 12.5872 17.3738 12.7258C17.6511 12.8645 17.7635 13.2017 17.6248 13.479L16.502 15.7246C16.4037 15.9214 16.2054 16.0351 15.9995 16.0351ZM5.89428 16.0351C5.48172 16.0351 5.20474 15.5982 5.39256 15.2225L6.51537 12.9769C6.654 12.6996 6.99129 12.5872 7.26855 12.7258C7.54589 12.8645 7.65827 13.2017 7.51964 13.479L6.39684 15.7246C6.29849 15.9214 6.10018 16.0351 5.89428 16.0351ZM0.841679 16.0351C0.42912 16.0351 0.152139 15.5982 0.339963 15.2225L1.46276 12.9769C1.60139 12.6996 1.93869 12.5872 2.21595 12.7258C2.49328 12.8645 2.60567 13.2017 2.46704 13.479L1.34424 15.7246C1.24589 15.9214 1.04757 16.0351 0.841679 16.0351ZM7.57848 18C7.16592 18 6.88894 17.5631 7.07677 17.1874L8.19957 14.9418C8.33823 14.6645 8.67546 14.5521 8.95275 14.6907C9.23009 14.8294 9.34247 15.1666 9.20384 15.4439L8.08104 17.6895C7.98269 17.8863 7.78438 18 7.57848 18ZM12.6311 18C12.2185 18 11.9415 17.5631 12.1294 17.1874L13.2522 14.9418C13.3908 14.6645 13.7281 14.5521 14.0054 14.6907C14.2827 14.8294 14.3951 15.1666 14.2564 15.4439L13.1336 17.6895C13.0353 17.8863 12.837 18 12.6311 18ZM2.52588 18C2.11332 18 1.83634 17.5631 2.02416 17.1874L3.14696 14.9418C3.28563 14.6645 3.62286 14.5521 3.90015 14.6907C4.17748 14.8294 4.28987 15.1666 4.15124 15.4439L3.02844 17.6895C2.93009 17.8863 2.73177 18 2.52588 18Z" fill="black"/>
</svg>
