<svg width="17" height="14" viewBox="0 0 17 14" fill="none" xmlns="http://www.w3.org/2000/svg">
<path d="M14.9124 8.35332C14.9971 8.04362 15.0394 7.72332 15.0394 7.39509C15.0394 5.36744 13.393 3.72097 11.368 3.72097C10.325 3.72097 9.34825 4.15774 8.65208 4.92538C8.51178 4.79038 8.3609 4.67126 8.20208 4.56274C8.09884 2.73626 6.61119 1.32009 4.76884 1.32009C2.86825 1.32009 1.31972 2.86597 1.31972 4.76656C1.31972 5.74332 1.73531 6.66715 2.45796 7.31832C2.45002 7.40568 2.44472 7.49038 2.44472 7.58038C2.44472 7.82391 2.46855 8.0648 2.51355 8.30038C1.15561 8.36656 0.0703125 9.49421 0.0703125 10.868C0.0703125 12.2869 1.22443 13.441 2.64325 13.441H14.3697C15.7859 13.441 16.94 12.2869 16.94 10.868C16.94 9.64774 16.085 8.60479 14.9124 8.35332ZM14.3697 13.0439H2.64325C1.44414 13.0439 0.467371 12.0671 0.467371 10.868C0.467371 9.66891 1.44414 8.69479 2.64325 8.69479H2.75443C2.89472 8.70274 2.99267 8.57303 2.95825 8.44332C2.88149 8.16803 2.84178 7.87685 2.84178 7.58038C2.84178 4.5495 6.54766 3.21274 8.51443 5.35421C8.59649 5.44156 8.73943 5.43891 8.81619 5.34362C9.4409 4.56538 10.37 4.11803 11.368 4.11803C13.1733 4.11803 14.6424 5.58715 14.6424 7.39509C14.6424 7.75774 14.5841 8.11244 14.4677 8.44862C14.4585 8.47665 14.4556 8.50636 14.4592 8.53563C14.4628 8.5649 14.4728 8.59303 14.4884 8.61802C14.5041 8.64302 14.525 8.66427 14.5498 8.68028C14.5746 8.69629 14.6026 8.70667 14.6318 8.71068C15.7224 8.84038 16.543 9.7695 16.543 10.868C16.543 12.0671 15.5688 13.0439 14.3697 13.0439ZM4.76752 0.859765C4.82017 0.859765 4.87067 0.838848 4.9079 0.801617C4.94513 0.764385 4.96605 0.713888 4.96605 0.661235V0.198529C4.96605 0.145876 4.94513 0.0953793 4.9079 0.0581478C4.87067 0.0209163 4.82017 0 4.76752 0C4.71487 0 4.66437 0.0209163 4.62714 0.0581478C4.58991 0.0953793 4.56899 0.145876 4.56899 0.198529V0.661765C4.56899 0.771353 4.65793 0.860294 4.76752 0.860294V0.859765Z" fill="black"/>
<path d="M7.81174 2.00473L8.13918 1.67703C8.15868 1.65885 8.17433 1.63693 8.18518 1.61258C8.19603 1.58823 8.20186 1.56194 8.20233 1.53528C8.2028 1.50863 8.1979 1.48215 8.18792 1.45743C8.17793 1.43271 8.16307 1.41025 8.14422 1.3914C8.12536 1.37255 8.10291 1.35769 8.07819 1.3477C8.05347 1.33772 8.02699 1.33281 8.00033 1.33328C7.97368 1.33375 7.94739 1.33959 7.92303 1.35044C7.89868 1.36129 7.87676 1.37693 7.85859 1.39644L7.53115 1.72388C7.51164 1.74206 7.496 1.76397 7.48515 1.78833C7.4743 1.81268 7.46846 1.83897 7.46799 1.86562C7.46752 1.89228 7.47242 1.91876 7.48241 1.94348C7.49239 1.9682 7.50726 1.99066 7.52611 2.00951C7.54496 2.02836 7.56742 2.04322 7.59214 2.05321C7.61686 2.06319 7.64334 2.0681 7.66999 2.06763C7.69665 2.06716 7.72294 2.06132 7.74729 2.05047C7.77164 2.03962 7.79356 2.02424 7.81174 2.00473ZM1.67718 8.13903L2.00462 7.81159C2.02412 7.79341 2.03977 7.77149 2.05062 7.74714C2.06147 7.72279 2.0673 7.6965 2.06777 7.66984C2.06824 7.64319 2.06334 7.61671 2.05336 7.59199C2.04337 7.56727 2.02851 7.54481 2.00966 7.52596C1.99081 7.50711 1.96835 7.49224 1.94363 7.48226C1.91891 7.47227 1.89243 7.46737 1.86577 7.46784C1.83912 7.46831 1.81283 7.47415 1.78848 7.485C1.76412 7.49585 1.7422 7.51149 1.72403 7.531L1.39659 7.85817C1.37708 7.87635 1.36144 7.89827 1.35059 7.92262C1.33974 7.94697 1.3339 7.97326 1.33343 7.99992C1.33296 8.02658 1.33787 8.05305 1.34785 8.07777C1.35783 8.10249 1.3727 8.12495 1.39155 8.1438C1.4104 8.16265 1.43286 8.17752 1.45758 8.1875C1.4823 8.19749 1.50878 8.20239 1.53543 8.20192C1.56209 8.20145 1.58838 8.19561 1.61273 8.18476C1.63708 8.17391 1.659 8.15853 1.67718 8.13903ZM0.6615 4.96626C0.714153 4.96626 0.76465 4.94535 0.801882 4.90811C0.839113 4.87088 0.860029 4.82039 0.860029 4.76773C0.860029 4.71508 0.839113 4.66458 0.801882 4.62735C0.76465 4.59012 0.714153 4.5692 0.6615 4.5692H0.198529C0.145876 4.5692 0.0953794 4.59012 0.058148 4.62735C0.0209165 4.66458 0 4.71508 0 4.76773C0 4.82039 0.0209165 4.87088 0.058148 4.90811C0.0953794 4.94535 0.145876 4.96626 0.198529 4.96626H0.6615ZM1.72403 2.00473C1.74235 2.02369 1.76427 2.0388 1.78849 2.04919C1.81272 2.05959 1.83877 2.06505 1.86513 2.06527C1.89149 2.06548 1.91763 2.06045 1.94203 2.05045C1.96642 2.04046 1.98858 2.02571 2.00721 2.00706C2.02584 1.98841 2.04057 1.96624 2.05054 1.94183C2.06052 1.91743 2.06553 1.89129 2.06528 1.86493C2.06504 1.83857 2.05955 1.81252 2.04914 1.7883C2.03872 1.76408 2.02359 1.74219 2.00462 1.72388L1.67718 1.39644C1.659 1.37693 1.63708 1.36129 1.61273 1.35044C1.58838 1.33959 1.56209 1.33375 1.53543 1.33328C1.50878 1.33281 1.4823 1.33772 1.45758 1.3477C1.43286 1.35769 1.4104 1.37255 1.39155 1.3914C1.3727 1.41025 1.35783 1.43271 1.34785 1.45743C1.33787 1.48215 1.33296 1.50863 1.33343 1.53528C1.3339 1.56194 1.33974 1.58823 1.35059 1.61258C1.36144 1.63693 1.37708 1.65885 1.39659 1.67703L1.72403 2.00473Z" fill="black"/>
</svg>
