<svg width="17" height="18" viewBox="0 0 17 18" fill="none" xmlns="http://www.w3.org/2000/svg">
<path d="M16.0004 10.1957C16.134 10.5246 15.9757 10.8995 15.6468 11.0331L13.8605 11.7596L15.5137 12.753C15.822 12.929 15.9292 13.3217 15.7532 13.63C15.5771 13.9384 15.1844 14.0455 14.8761 13.8695C14.8678 13.8647 14.8596 13.8598 14.8515 13.8547L13.1985 12.8615L13.3957 14.7804C13.4263 15.1341 13.1643 15.4456 12.8106 15.4762C12.4648 15.5061 12.1578 15.2562 12.1169 14.9116L11.8211 12.0338L8.66208 10.1361V13.8214L10.9764 15.5571C11.2604 15.7701 11.318 16.1731 11.1049 16.4571C10.8919 16.7411 10.4889 16.7987 10.2049 16.5857L8.66202 15.4285V17.3571C8.66202 17.7122 8.37419 18 8.01916 18C7.66414 18 7.3763 17.7122 7.3763 17.3571V15.4285L5.83342 16.5857C5.54938 16.7987 5.14643 16.7411 4.9334 16.4571C4.72036 16.1731 4.77791 15.7701 5.06195 15.5571L7.37624 13.8214V10.1361L4.21747 12.0343L3.92173 14.9121C3.89116 15.2658 3.57964 15.5278 3.22591 15.4972C2.87217 15.4666 2.6102 15.1551 2.64077 14.8014C2.64138 14.7945 2.64205 14.7876 2.64289 14.7808L2.84014 12.8619L1.18707 13.8552C0.886919 14.0448 0.489846 13.9552 0.300212 13.655C0.110578 13.3549 0.20016 12.9578 0.500316 12.7682C0.508379 12.7631 0.516609 12.7582 0.524895 12.7534L2.17808 11.7601L0.39181 11.0336C0.0650594 10.8947 -0.08723 10.5172 0.0516781 10.1905C0.187451 9.87105 0.552274 9.71708 0.875833 9.8426L3.55562 10.9324L6.77117 8.99992L3.55534 7.06769L0.875553 8.15779C0.544547 8.28623 0.17211 8.12196 0.0436717 7.79095C-0.0818552 7.46739 0.072114 7.10257 0.39153 6.9668L2.1778 6.24034L0.524727 5.24676C0.216397 5.07068 0.109235 4.67803 0.285263 4.36976C0.461348 4.06143 0.853997 3.95426 1.16227 4.13029C1.17056 4.13505 1.17873 4.13998 1.18685 4.14507L2.83992 5.13831L2.64267 3.21941C2.60645 2.86623 2.86338 2.55051 3.21656 2.51429C3.56973 2.47806 3.88545 2.735 3.92168 3.08817L4.21741 5.96594L7.37641 7.86396V4.17855L5.06211 2.44285C4.77797 2.22992 4.72025 1.82703 4.93317 1.54288C5.1461 1.25874 5.54899 1.20102 5.83314 1.41394L5.83358 1.41428L7.37647 2.5714V0.642863C7.37641 0.287838 7.66425 0 8.01927 0C8.3743 0 8.66214 0.287838 8.66214 0.642863V2.57145L10.205 1.41433C10.489 1.2013 10.892 1.25885 11.105 1.54288C11.3181 1.82691 11.2605 2.22987 10.9765 2.4429L8.66219 4.17861V7.86396L11.8211 5.96572L12.1169 3.08795C12.1587 2.73539 12.4786 2.48355 12.8311 2.52543C13.1757 2.56636 13.4256 2.8734 13.3957 3.21913L13.1985 5.13803L14.8515 4.14479C15.1517 3.95516 15.5488 4.04474 15.7384 4.34495C15.928 4.64511 15.8384 5.04218 15.5382 5.23182C15.5302 5.23691 15.522 5.24184 15.5137 5.2466L13.8604 6.23995L15.6467 6.9664C15.9734 7.10531 16.1257 7.48279 15.9868 7.80954C15.851 8.12895 15.4862 8.28292 15.1627 8.1574L12.4829 7.06763L9.26732 9.00008L12.4831 10.9323L15.1629 9.84255C15.4913 9.70862 15.866 9.86623 15.9999 10.1945L16.0004 10.1957Z" fill="black"/>
</svg>
