<svg width="12" height="18" viewBox="0 0 12 18" fill="none" xmlns="http://www.w3.org/2000/svg">
<path d="M4.06044 18C3.99041 18 3.91953 17.986 3.85182 17.9568C3.73708 17.9073 3.64364 17.8187 3.58815 17.7067C3.53267 17.5947 3.51875 17.4667 3.54888 17.3454L5.33214 10.1673H0.527354C0.441683 10.1673 0.357301 10.1465 0.281508 10.1065C0.205715 10.0666 0.140794 10.0088 0.0923603 9.93811C0.0439268 9.86744 0.0134394 9.78604 0.00353559 9.70094C-0.00636817 9.61585 0.00461003 9.52962 0.0355203 9.44972L3.56034 0.337112C3.59873 0.237857 3.66624 0.152539 3.75402 0.0923715C3.8418 0.0322038 3.94572 2.48012e-06 4.05214 0L8.90231 0C9.08052 0 9.24667 0.0899997 9.34405 0.239273C9.39196 0.31275 9.42078 0.397017 9.42792 0.484443C9.43505 0.571869 9.42027 0.659694 9.3849 0.739966L7.29772 5.4776H11.4257C11.5204 5.4776 11.6134 5.5031 11.6948 5.55141C11.7762 5.59972 11.8432 5.66906 11.8885 5.75215C11.9339 5.83525 11.9561 5.92903 11.9528 6.02366C11.9494 6.11828 11.9206 6.21025 11.8695 6.28992L4.50439 17.7576C4.45664 17.8319 4.39095 17.8931 4.31338 17.9355C4.2358 17.9778 4.14883 18 4.06044 18ZM1.29675 9.11267H6.0065C6.08658 9.11268 6.16559 9.13093 6.23757 9.16602C6.30954 9.20111 6.37257 9.25212 6.4219 9.3152C6.47122 9.37828 6.50553 9.45176 6.52223 9.53007C6.53893 9.60838 6.53757 9.68947 6.51827 9.76718L5.34216 14.5014L10.4603 6.53225H6.48913C6.40141 6.53225 6.31508 6.51037 6.23796 6.46859C6.16083 6.42682 6.09535 6.36646 6.04743 6.29299C5.99951 6.21952 5.97068 6.13526 5.96354 6.04784C5.9564 5.96041 5.97118 5.87259 6.00654 5.79232L8.09376 1.05468H4.41358L1.29675 9.11267Z" fill="black"/>
</svg>
