<svg width="95" height="95" viewBox="0 0 95 95" fill="none" xmlns="http://www.w3.org/2000/svg">
<path d="M57 57L38 38" stroke="black" stroke-width="5" stroke-linecap="round" stroke-linejoin="round"/>
<path d="M73.8507 85.0446C72.3663 86.5296 70.3527 87.364 68.253 87.3644C66.1534 87.3648 64.1395 86.531 62.6546 85.0466C61.1696 83.5622 60.3351 81.5486 60.3348 79.4489C60.3344 77.3493 61.1681 75.3354 62.6526 73.8505L55.6582 80.8488C54.1732 82.3337 52.1592 83.168 50.0591 83.168C47.9591 83.168 45.945 82.3337 44.4601 80.8488C42.9751 79.3638 42.1409 77.3498 42.1409 75.2497C42.1409 73.1497 42.9751 71.1356 44.4601 69.6507L69.6509 44.4598C71.1359 42.9749 73.1499 42.1406 75.25 42.1406C77.35 42.1406 79.3641 42.9749 80.849 44.4598C82.334 45.9448 83.1682 47.9588 83.1682 50.0589C83.1682 52.1589 82.334 54.173 80.849 55.658L73.8507 62.6523C75.3357 61.1679 77.3495 60.3342 79.4492 60.3345C81.5489 60.3349 83.5624 61.1693 85.0468 62.6543C86.5313 64.1393 87.365 66.1531 87.3646 68.2528C87.3643 70.3525 86.5298 72.366 85.0449 73.8505L73.8507 85.0446Z" stroke="black" stroke-width="5" stroke-linecap="round" stroke-linejoin="round"/>
<path d="M85.1042 85.1042L79.5625 79.5625" stroke="black" stroke-width="5" stroke-linecap="round" stroke-linejoin="round"/>
<path d="M15.4374 15.4377L9.89575 9.896" stroke="black" stroke-width="5" stroke-linecap="round" stroke-linejoin="round"/>
<path d="M25.3492 50.5398C23.8643 52.0248 21.8502 52.859 19.7502 52.859C17.6501 52.859 15.6361 52.0248 14.1511 50.5398C12.6662 49.0549 11.8319 47.0408 11.8319 44.9408C11.8319 42.8407 12.6662 40.8267 14.1511 39.3417L21.1495 32.3473C20.4142 33.0824 19.5413 33.6654 18.5807 34.063C17.6201 34.4607 16.5906 34.6653 15.551 34.6651C13.4513 34.6648 11.4377 33.8303 9.95331 32.3454C9.21829 31.6101 8.63529 30.7372 8.2376 29.7766C7.83991 28.816 7.63531 27.7865 7.6355 26.7469C7.63587 24.6472 8.47032 22.6336 9.95529 21.1492L21.1495 9.95504C22.6339 8.47008 24.6474 7.63563 26.7471 7.63525C27.7868 7.63507 28.8163 7.83966 29.7769 8.23735C30.7375 8.63504 31.6103 9.21804 32.3456 9.95306C33.0809 10.6881 33.6642 11.5607 34.0622 12.5212C34.4602 13.4816 34.6652 14.5111 34.6654 15.5507C34.6656 16.5904 34.461 17.6199 34.0633 18.5805C33.6656 19.5411 33.0826 20.4139 32.3476 21.1492L39.342 14.1509C40.8269 12.6659 42.841 11.8317 44.941 11.8317C47.0411 11.8317 49.0551 12.6659 50.5401 14.1509C52.025 15.6358 52.8593 17.6499 52.8593 19.7499C52.8593 21.85 52.025 23.864 50.5401 25.349L25.3492 50.5398Z" stroke="black" stroke-width="5" stroke-linecap="round" stroke-linejoin="round"/>
</svg>
