<svg width="95" height="95" viewBox="0 0 95 95" fill="none" xmlns="http://www.w3.org/2000/svg">
<path d="M23.75 87.0832V15.8332C23.75 13.7335 24.5841 11.7199 26.0687 10.2352C27.5534 8.75058 29.567 7.9165 31.6667 7.9165H63.3333C65.433 7.9165 67.4466 8.75058 68.9313 10.2352C70.4159 11.7199 71.25 13.7335 71.25 15.8332V87.0832H23.75Z" stroke="black" stroke-width="5" stroke-linecap="round" stroke-linejoin="round"/>
<path d="M23.7501 47.5H15.8334C13.7338 47.5 11.7201 48.3341 10.2355 49.8187C8.75082 51.3034 7.91675 53.317 7.91675 55.4167V79.1667C7.91675 81.2663 8.75082 83.2799 10.2355 84.7646C11.7201 86.2493 13.7338 87.0833 15.8334 87.0833H23.7501" stroke="black" stroke-width="5" stroke-linecap="round" stroke-linejoin="round"/>
<path d="M71.25 35.625H79.1667C81.2663 35.625 83.2799 36.4591 84.7646 37.9437C86.2493 39.4284 87.0833 41.442 87.0833 43.5417V79.1667C87.0833 81.2663 86.2493 83.2799 84.7646 84.7646C83.2799 86.2493 81.2663 87.0833 79.1667 87.0833H71.25" stroke="black" stroke-width="5" stroke-linecap="round" stroke-linejoin="round"/>
<path d="M39.5833 23.75H55.4166" stroke="black" stroke-width="5" stroke-linecap="round" stroke-linejoin="round"/>
<path d="M39.5833 39.5835H55.4166" stroke="black" stroke-width="5" stroke-linecap="round" stroke-linejoin="round"/>
<path d="M39.5833 55.4165H55.4166" stroke="black" stroke-width="5" stroke-linecap="round" stroke-linejoin="round"/>
<path d="M39.5833 71.25H55.4166" stroke="black" stroke-width="5" stroke-linecap="round" stroke-linejoin="round"/>
</svg>
