<svg width="95" height="95" viewBox="0 0 95 95" fill="none" xmlns="http://www.w3.org/2000/svg">
<path d="M79.1666 39.5832C79.1666 59.3471 57.2414 79.9305 49.8789 86.2875C49.193 86.8033 48.3581 87.0822 47.4999 87.0822C46.6418 87.0822 45.8068 86.8033 45.121 86.2875C37.7585 79.9305 15.8333 59.3471 15.8333 39.5832C15.8333 31.1846 19.1696 23.1301 25.1082 17.1915C31.0469 11.2528 39.1014 7.9165 47.4999 7.9165C55.8984 7.9165 63.953 11.2528 69.8916 17.1915C75.8303 23.1301 79.1666 31.1846 79.1666 39.5832Z" stroke="black" stroke-width="3" stroke-linecap="round" stroke-linejoin="round"/>
<path d="M47.5 51.4585C54.0584 51.4585 59.375 46.1419 59.375 39.5835C59.375 33.0251 54.0584 27.7085 47.5 27.7085C40.9416 27.7085 35.625 33.0251 35.625 39.5835C35.625 46.1419 40.9416 51.4585 47.5 51.4585Z" stroke="black" stroke-width="3" stroke-linecap="round" stroke-linejoin="round"/>
</svg>
