<svg width="95" height="95" viewBox="0 0 95 95" fill="none" xmlns="http://www.w3.org/2000/svg">
<path d="M59.375 83.125V51.4583C59.375 50.4085 58.958 49.4017 58.2156 48.6594C57.4733 47.917 56.4665 47.5 55.4167 47.5H39.5833C38.5335 47.5 37.5267 47.917 36.7844 48.6594C36.042 49.4017 35.625 50.4085 35.625 51.4583V83.125" stroke="black" stroke-width="3" stroke-linecap="round" stroke-linejoin="round"/>
<path d="M11.875 39.5836C11.8747 38.4319 12.1257 37.2941 12.6104 36.2495C13.0951 35.2049 13.8019 34.2786 14.6815 33.5352L42.3898 9.78918C43.8187 8.58152 45.6291 7.91895 47.5 7.91895C49.3709 7.91895 51.1813 8.58152 52.6102 9.78918L80.3185 33.5352C81.1981 34.2786 81.9049 35.2049 82.3896 36.2495C82.8743 37.2941 83.1253 38.4319 83.125 39.5836V75.2086C83.125 77.3082 82.2909 79.3218 80.8063 80.8065C79.3216 82.2911 77.308 83.1252 75.2083 83.1252H19.7917C17.692 83.1252 15.6784 82.2911 14.1937 80.8065C12.7091 79.3218 11.875 77.3082 11.875 75.2086V39.5836Z" stroke="black" stroke-width="3" stroke-linecap="round" stroke-linejoin="round"/>
</svg>
