<svg width="95" height="95" viewBox="0 0 95 95" fill="none" xmlns="http://www.w3.org/2000/svg">
<g clip-path="url(#clip0_3_26)">
<path d="M70.3935 32.7958L48.1279 22.4052C47.9313 22.3134 47.717 22.2659 47.5 22.2659C47.283 22.2659 47.0687 22.3134 46.8721 22.4052L24.6065 32.7958C24.3506 32.9153 24.1341 33.1053 23.9823 33.3435C23.8306 33.5817 23.75 33.8583 23.75 34.1407V60.8594C23.75 61.1418 23.8306 61.4184 23.9823 61.6566C24.1341 61.8948 24.3506 62.0848 24.6065 62.2043L46.8721 72.5949C46.8795 72.5993 46.8899 72.5979 46.8973 72.6008C47.0829 72.684 47.2833 72.7344 47.5 72.7344C47.7167 72.7344 47.9171 72.684 48.1027 72.6008C48.1101 72.5979 48.1205 72.5993 48.1279 72.5949L70.3935 62.2043C70.6494 62.0848 70.8659 61.8948 71.0177 61.6566C71.1694 61.4184 71.25 61.1418 71.25 60.8594V34.1407C71.25 33.8583 71.1694 33.5817 71.0177 33.3435C70.8659 33.1053 70.6494 32.9153 70.3935 32.7958ZM66.2551 34.1407L47.5 42.8926L39.517 39.1668L58.2202 30.3911L66.2551 34.1407ZM47.5 25.3888L54.717 28.7554L36.0139 37.5325L28.7434 34.1407L47.5 25.3888ZM48.9844 68.9196V51.9517C48.9844 51.558 48.828 51.1805 48.5496 50.9021C48.2712 50.6237 47.8937 50.4673 47.5 50.4673C47.1063 50.4673 46.7288 50.6237 46.4504 50.9021C46.172 51.1805 46.0156 51.558 46.0156 51.9517V68.9181L26.7188 59.9139V36.4711L34.1406 39.9357V50.4688C34.1406 50.8625 34.297 51.24 34.5754 51.5184C34.8538 51.7968 35.2313 51.9532 35.625 51.9532C36.0187 51.9532 36.3962 51.7968 36.6746 51.5184C36.953 51.24 37.1094 50.8625 37.1094 50.4688V41.3206L46.8721 45.8776C47.0687 45.9695 47.283 46.0171 47.5 46.0171C47.717 46.0171 47.9313 45.9695 48.1279 45.8776L68.2812 36.4711V59.9139L48.9844 68.9196Z" fill="black"/>
<path d="M42.1902 61.1964L39.2215 59.8115C39.0449 59.729 38.8537 59.6822 38.659 59.6736C38.4643 59.665 38.2698 59.6948 38.0866 59.7614C37.9034 59.828 37.7352 59.93 37.5914 60.0616C37.4476 60.1932 37.3312 60.3518 37.2487 60.5284C37.1663 60.705 37.1194 60.8962 37.1108 61.0909C37.1022 61.2856 37.1321 61.4801 37.1986 61.6633C37.2652 61.8465 37.3672 62.0147 37.4988 62.1585C37.6304 62.3023 37.7891 62.4187 37.9657 62.5012L40.9344 63.8876C41.2913 64.0541 41.6997 64.072 42.0698 63.9374C42.4399 63.8028 42.7414 63.5267 42.9079 63.1699C43.0744 62.813 43.0924 62.4046 42.9578 62.0345C42.8232 61.6644 42.5471 61.3629 42.1902 61.1964Z" fill="black"/>
<path d="M95 47.5C95 43.6881 92.101 40.5754 88.399 40.1612C87.3385 34.2745 85.0195 28.6862 81.6005 23.7782C83.934 20.8673 83.7855 16.6087 81.087 13.913C78.3913 11.2159 74.1341 11.066 71.2218 13.398C66.3137 9.97951 60.7253 7.66103 54.8388 6.60102C54.4231 2.89898 51.3119 0 47.5 0C43.6881 0 40.5754 2.89898 40.1612 6.60102C34.2746 7.66153 28.6862 9.98051 23.7782 13.3995C20.8688 11.066 16.6087 11.2145 13.913 13.913C11.2145 16.6102 11.0645 20.8673 13.398 23.7782C9.97951 28.6863 7.66103 34.2747 6.60102 40.1612C2.89898 40.5769 0 43.6881 0 47.5C0 51.3119 2.89898 54.4246 6.60102 54.8388C7.66148 60.7255 9.98046 66.3138 13.3995 71.2218C11.066 74.1327 11.2145 78.3913 13.913 81.087C14.6015 81.7768 15.4195 82.3237 16.32 82.6964C17.2205 83.0691 18.1857 83.2602 19.1603 83.2586C20.8433 83.248 22.4722 82.6636 23.7782 81.602C28.6863 85.0205 34.2747 87.3389 40.1612 88.399C40.5769 92.101 43.6881 95 47.5 95C51.3119 95 54.4246 92.101 54.8388 88.399C60.7254 87.3385 66.3138 85.0195 71.2218 81.6005C72.5274 82.6629 74.1565 83.2478 75.8397 83.2586C77.7397 83.2586 79.6397 82.5342 81.087 81.087C83.7855 78.3898 83.9355 74.1327 81.602 71.2218C85.0205 66.3137 87.339 60.7253 88.399 54.8388C92.101 54.4231 95 51.3119 95 47.5ZM75.8397 68.4178C74.3612 68.4178 72.9511 68.8483 71.7473 69.6484L69.5415 67.4426C69.4046 67.3008 69.2408 67.1877 69.0597 67.1099C68.8786 67.0321 68.6838 66.9912 68.4867 66.9895C68.2896 66.9878 68.0941 67.0253 67.9117 67.1C67.7293 67.1746 67.5635 67.2848 67.4242 67.4242C67.2848 67.5635 67.1746 67.7293 67.1 67.9117C67.0253 68.0941 66.9878 68.2896 66.9895 68.4867C66.9912 68.6838 67.0321 68.8786 67.1099 69.0597C67.1877 69.2408 67.3008 69.4046 67.4426 69.5415L69.6484 71.7473C68.8422 72.9597 68.4135 74.3838 68.4163 75.8397C68.4163 77.0762 68.7503 78.2503 69.3159 79.3116C64.8806 82.3575 59.8573 84.4422 54.5686 85.4317C53.7819 82.8534 51.6592 80.8509 48.9844 80.3062V77.1875C48.9844 76.7938 48.828 76.4163 48.5496 76.1379C48.2712 75.8595 47.8937 75.7031 47.5 75.7031C47.1063 75.7031 46.7288 75.8595 46.4504 76.1379C46.172 76.4163 46.0156 76.7938 46.0156 77.1875V80.3062C43.3408 80.8509 41.2181 82.8534 40.4314 85.4317C35.1427 84.4422 30.1194 82.3575 25.6841 79.3116C26.2658 78.2458 26.5743 77.0524 26.5822 75.8382C26.5822 74.3612 26.1517 72.9511 25.3516 71.7473L27.5574 69.5415C27.6992 69.4046 27.8123 69.2408 27.8901 69.0597C27.9679 68.8786 28.0088 68.6838 28.0105 68.4867C28.0122 68.2896 27.9747 68.0941 27.9 67.9117C27.8254 67.7293 27.7152 67.5635 27.5758 67.4242C27.4364 67.2848 27.2707 67.1746 27.0883 67.1C26.9059 67.0253 26.7104 66.9878 26.5133 66.9895C26.3162 66.9912 26.1214 67.0321 25.9403 67.1099C25.7592 67.1877 25.5954 67.3008 25.4585 67.4426L23.2527 69.6484C22.0403 68.8422 20.6162 68.4135 19.1603 68.4163C17.9238 68.4163 16.7497 68.7503 15.6884 69.3159C12.6425 64.8806 10.5578 59.8573 9.56828 54.5686C12.1466 53.7819 14.1491 51.6592 14.6938 48.9844H17.8125C18.2062 48.9844 18.5837 48.828 18.8621 48.5496C19.1405 48.2712 19.2969 47.8937 19.2969 47.5C19.2969 47.1063 19.1405 46.7288 18.8621 46.4504C18.5837 46.172 18.2062 46.0156 17.8125 46.0156H14.6938C14.1491 43.3408 12.1466 41.2181 9.56828 40.4314C10.5578 35.1427 12.6425 30.1194 15.6884 25.6841C16.7542 26.2658 17.9476 26.5743 19.1618 26.5822C20.6388 26.5822 22.0489 26.1517 23.2527 25.3516L25.4585 27.5574C25.596 27.6957 25.7596 27.8055 25.9397 27.8804C26.1198 27.9553 26.3129 27.9939 26.508 27.9939C26.703 27.9939 26.8962 27.9553 27.0763 27.8804C27.2564 27.8055 27.4199 27.6957 27.5574 27.5574C27.8357 27.2791 27.992 26.9016 27.992 26.508C27.992 26.1144 27.8357 25.7369 27.5574 25.4585L25.3516 23.2527C26.1517 22.0504 26.5837 20.6387 26.5837 19.1603C26.5837 17.9238 26.2497 16.7497 25.6841 15.6884C30.1194 12.6425 35.1427 10.5578 40.4314 9.56828C41.2181 12.1466 43.3408 14.1491 46.0156 14.6938V17.8125C46.0156 18.2062 46.172 18.5837 46.4504 18.8621C46.7288 19.1405 47.1063 19.2969 47.5 19.2969C47.8937 19.2969 48.2712 19.1405 48.5496 18.8621C48.828 18.5837 48.9844 18.2062 48.9844 17.8125V14.6938C51.6592 14.1491 53.7819 12.1466 54.5686 9.56828C59.853 10.5554 64.8998 12.6498 69.3159 15.6884C68.7342 16.7542 68.4257 17.9476 68.4178 19.1618C68.4178 20.6388 68.8483 22.0489 69.6484 23.2527L67.4426 25.4585C67.3008 25.5954 67.1877 25.7592 67.1099 25.9403C67.0321 26.1214 66.9912 26.3162 66.9895 26.5133C66.9878 26.7104 67.0253 26.9059 67.1 27.0883C67.1746 27.2707 67.2848 27.4364 67.4242 27.5758C67.5635 27.7152 67.7293 27.8254 67.9117 27.9C68.0941 27.9747 68.2896 28.0122 68.4867 28.0105C68.6838 28.0088 68.8786 27.9679 69.0597 27.8901C69.2408 27.8123 69.4046 27.6992 69.5415 27.5574L71.7473 25.3516C72.9496 26.1517 74.3612 26.5837 75.8397 26.5837C77.0762 26.5837 78.2503 26.2497 79.3116 25.6841C82.3575 30.1194 84.4422 35.1427 85.4317 40.4314C82.8534 41.2181 80.8509 43.3408 80.3062 46.0156H77.1875C76.7938 46.0156 76.4163 46.172 76.1379 46.4504C75.8595 46.7288 75.7031 47.1063 75.7031 47.5C75.7031 47.8937 75.8595 48.2712 76.1379 48.5496C76.4163 48.828 76.7938 48.9844 77.1875 48.9844H80.3062C80.8509 51.6592 82.8534 53.7819 85.4317 54.5686C84.4422 59.8573 82.3575 64.8806 79.3116 69.3159C78.2458 68.7342 77.0539 68.4257 75.8397 68.4178ZM92.0312 47.5C92.0312 49.9552 90.0333 51.9531 87.5781 51.9531C85.123 51.9531 83.125 49.9552 83.125 47.5C83.125 45.0448 85.123 43.0469 87.5781 43.0469C90.0333 43.0469 92.0312 45.0448 92.0312 47.5ZM78.988 16.012C79.8214 16.8478 80.2894 17.98 80.2894 19.1603C80.2894 20.3406 79.8214 21.4728 78.988 22.3087C77.3063 23.992 74.3731 23.992 72.6913 22.3087C72.2764 21.8965 71.9473 21.4062 71.7231 20.866C71.4988 20.3259 71.384 19.7466 71.3851 19.1618C71.3851 17.9698 71.8497 16.8536 72.6913 16.012C73.1045 15.5983 73.5953 15.2703 74.1356 15.0469C74.6759 14.8235 75.255 14.7091 75.8397 14.7102C76.4243 14.7091 77.0035 14.8235 77.5438 15.0469C78.084 15.2703 78.5749 15.5983 78.988 16.012ZM47.5 2.96875C49.9552 2.96875 51.9531 4.96672 51.9531 7.42188C51.9531 9.87703 49.9552 11.875 47.5 11.875C45.0448 11.875 43.0469 9.87703 43.0469 7.42188C43.0469 4.96672 45.0448 2.96875 47.5 2.96875ZM16.012 16.012C16.4249 15.5985 16.9155 15.2706 17.4556 15.0472C17.9956 14.8238 18.5744 14.7093 19.1588 14.7102C19.7437 14.7089 20.3231 14.8232 20.8637 15.0467C21.4043 15.2701 21.8953 15.5981 22.3087 16.012C22.7238 16.4243 23.053 16.9148 23.2772 17.4553C23.5014 17.9957 23.6162 18.5752 23.6149 19.1603C23.6162 19.7454 23.5014 20.3249 23.2772 20.8654C23.053 21.4058 22.7238 21.8964 22.3087 22.3087C20.6269 23.992 17.6937 23.992 16.012 22.3087C15.1786 21.4728 14.7106 20.3406 14.7106 19.1603C14.7106 17.98 15.1786 16.8478 16.012 16.012ZM2.96875 47.5C2.96875 45.0448 4.96672 43.0469 7.42188 43.0469C9.87703 43.0469 11.875 45.0448 11.875 47.5C11.875 49.9552 9.87703 51.9531 7.42188 51.9531C4.96672 51.9531 2.96875 49.9552 2.96875 47.5ZM16.012 78.988C15.1786 78.1522 14.7106 77.02 14.7106 75.8397C14.7106 74.6594 15.1786 73.5272 16.012 72.6913C16.4243 72.2762 16.9148 71.947 17.4553 71.7228C17.9957 71.4986 18.5752 71.3838 19.1603 71.3851C20.3493 71.3851 21.467 71.8497 22.3087 72.6913C23.1503 73.533 23.6149 74.6507 23.6149 75.8382C23.6164 76.4235 23.5017 77.0034 23.2775 77.5441C23.0533 78.0847 22.724 78.5756 22.3087 78.988C21.473 79.8218 20.3408 80.29 19.1603 80.29C17.9799 80.29 16.8476 79.8218 16.012 78.988ZM47.5 92.0312C45.0448 92.0312 43.0469 90.0333 43.0469 87.5781C43.0469 85.123 45.0448 83.125 47.5 83.125C49.9552 83.125 51.9531 85.123 51.9531 87.5781C51.9531 90.0333 49.9552 92.0312 47.5 92.0312ZM78.988 78.988C78.1524 79.8218 77.0201 80.29 75.8397 80.29C74.6592 80.29 73.527 79.8218 72.6913 78.988C72.2762 78.5757 71.947 78.0852 71.7228 77.5447C71.4986 77.0043 71.3838 76.4248 71.3851 75.8397C71.3851 74.6507 71.8497 73.533 72.6913 72.6913C73.533 71.8497 74.6507 71.3851 75.8382 71.3851C76.4235 71.3836 77.0034 71.4983 77.5441 71.7225C78.0847 71.9467 78.5756 72.276 78.988 72.6913C79.8214 73.5272 80.2894 74.6594 80.2894 75.8397C80.2894 77.02 79.8214 78.1522 78.988 78.988Z" fill="black"/>
</g>
<defs>
<clipPath id="clip0_3_26">
<rect width="95" height="95" fill="white"/>
</clipPath>
</defs>
</svg>
