<svg width="95" height="95" viewBox="0 0 95 95" fill="none" xmlns="http://www.w3.org/2000/svg">
<path d="M47.5833 87.1667C69.4446 87.1667 87.1667 69.4446 87.1667 47.5833C87.1667 25.7221 69.4446 8 47.5833 8C25.7221 8 8 25.7221 8 47.5833C8 69.4446 25.7221 87.1667 47.5833 87.1667Z" stroke="#059669" stroke-width="5" stroke-linecap="round" stroke-linejoin="round"/>
<path d="M48 75C62.9117 75 75 62.9117 75 48C75 33.0883 62.9117 21 48 21C33.0883 21 21 33.0883 21 48C21 62.9117 33.0883 75 48 75Z" stroke="#059669" stroke-width="5" stroke-linecap="round" stroke-linejoin="round"/>
<path d="M37 48L44 55L58 41" stroke="#059669" stroke-width="5" stroke-linecap="round" stroke-linejoin="round"/>
</svg>
