<svg width="95" height="95" viewBox="0 0 95 95" fill="none" xmlns="http://www.w3.org/2000/svg">
<path d="M22.9584 44.729L7.91675 87.0832L50.2709 72.0811" stroke="black" stroke-width="5" stroke-linecap="round" stroke-linejoin="round"/>
<path d="M15.8333 11.875H15.8728" stroke="black" stroke-width="5" stroke-linecap="round" stroke-linejoin="round"/>
<path d="M87.0833 31.6665H87.1228" stroke="black" stroke-width="5" stroke-linecap="round" stroke-linejoin="round"/>
<path d="M59.375 7.9165H59.4146" stroke="black" stroke-width="5" stroke-linecap="round" stroke-linejoin="round"/>
<path d="M87.0833 79.1665H87.1228" stroke="black" stroke-width="5" stroke-linecap="round" stroke-linejoin="round"/>
<path d="M87.0834 7.9165L78.2167 10.8853C75.6928 11.726 73.5393 13.4172 72.1242 15.6698C70.7091 17.9224 70.1203 20.5966 70.4584 23.2353C70.8542 26.6394 68.2022 29.6873 64.7188 29.6873H63.2147C59.8105 29.6873 56.8813 32.0623 56.248 35.3873L55.4167 39.5832" stroke="black" stroke-width="5" stroke-linecap="round" stroke-linejoin="round"/>
<path d="M87.0834 51.4583L83.8376 50.152C80.4334 48.8062 76.6334 50.9437 76.0001 54.5458C75.5647 57.3166 73.1501 59.3749 70.3397 59.3749H67.2917" stroke="black" stroke-width="5" stroke-linecap="round" stroke-linejoin="round"/>
<path d="M43.5417 7.9165L44.8479 11.1623C46.1937 14.5665 44.0563 18.3665 40.4542 18.9998C37.6833 19.3957 35.625 21.8498 35.625 24.6603V27.7082" stroke="black" stroke-width="5" stroke-linecap="round" stroke-linejoin="round"/>
<path d="M43.5416 51.4585C51.1811 59.0981 54.7436 67.9648 51.4582 71.2502C48.1728 74.5356 39.3061 70.9731 31.6666 63.3335C24.027 55.694 20.4645 46.8273 23.7499 43.5419C27.0353 40.2565 35.902 43.819 43.5416 51.4585Z" stroke="black" stroke-width="5" stroke-linecap="round" stroke-linejoin="round"/>
</svg>
