<svg width="95" height="95" viewBox="0 0 95 95" fill="none" xmlns="http://www.w3.org/2000/svg">
<path d="M42.4848 20.0925C51.7053 18.9937 61.032 20.9428 69.0407 25.6423C77.0495 30.3417 83.3 37.5332 86.8379 46.1185C87.1678 47.0072 87.1678 47.9848 86.8379 48.8735C85.3832 52.4004 83.4607 55.7155 81.1221 58.7298" stroke="black" stroke-width="5" stroke-linecap="round" stroke-linejoin="round"/>
<path d="M55.7492 56.0421C53.5095 58.2052 50.5099 59.4021 47.3963 59.3751C44.2827 59.348 41.3043 58.0992 39.1026 55.8974C36.9008 53.6957 35.652 50.7173 35.6249 47.6037C35.5979 44.4901 36.7948 41.4905 38.9579 39.2508" stroke="black" stroke-width="5" stroke-linecap="round" stroke-linejoin="round"/>
<path d="M69.1877 69.2669C63.9369 72.3772 58.0785 74.3217 52.01 74.9684C45.9414 75.6151 39.8048 74.9489 34.0165 73.0149C28.2281 71.081 22.9235 67.9246 18.4625 63.7598C14.0015 59.5951 10.4886 54.5195 8.16208 48.8775C7.83219 47.9888 7.83219 47.0112 8.16208 46.1225C11.6717 37.6115 17.8468 30.4683 25.7608 25.7648" stroke="black" stroke-width="5" stroke-linecap="round" stroke-linejoin="round"/>
<path d="M20 10L87 77" stroke="black" stroke-width="5" stroke-linecap="round" stroke-linejoin="round"/>
</svg>
