<svg width="95" height="95" viewBox="0 0 95 95" fill="none" xmlns="http://www.w3.org/2000/svg">
<path d="M8.16209 48.8775C7.8322 47.9888 7.8322 47.0112 8.16209 46.1225C11.3751 38.3319 16.8289 31.6708 23.8322 26.9836C30.8355 22.2963 39.0729 19.7941 47.5 19.7941C55.9271 19.7941 64.1645 22.2963 71.1678 26.9836C78.1711 31.6708 83.6249 38.3319 86.8379 46.1225C87.1678 47.0112 87.1678 47.9888 86.8379 48.8775C83.6249 56.6681 78.1711 63.3292 71.1678 68.0165C64.1645 72.7037 55.9271 75.2059 47.5 75.2059C39.0729 75.2059 30.8355 72.7037 23.8322 68.0165C16.8289 63.3292 11.3751 56.6681 8.16209 48.8775Z" stroke="black" stroke-width="5" stroke-linecap="round" stroke-linejoin="round"/>
<path d="M47.5 59.375C54.0584 59.375 59.375 54.0584 59.375 47.5C59.375 40.9416 54.0584 35.625 47.5 35.625C40.9416 35.625 35.625 40.9416 35.625 47.5C35.625 54.0584 40.9416 59.375 47.5 59.375Z" stroke="black" stroke-width="5" stroke-linecap="round" stroke-linejoin="round"/>
</svg>
