<svg width="95" height="95" viewBox="0 0 95 95" fill="none" xmlns="http://www.w3.org/2000/svg">
<path d="M58.1876 24.9376C57.4623 25.6775 57.0561 26.6723 57.0561 27.7084C57.0561 28.7445 57.4623 29.7393 58.1876 30.4793L64.5209 36.8126C65.2609 37.5379 66.2557 37.9441 67.2918 37.9441C68.3279 37.9441 69.3227 37.5379 70.0626 36.8126L84.9855 21.8897C86.9759 26.2881 87.5786 31.1887 86.7132 35.9384C85.8478 40.688 83.5554 45.0611 80.1416 48.4749C76.7278 51.8887 72.3547 54.1811 67.6051 55.0465C62.8554 55.9119 57.9548 55.3092 53.5564 53.3188L26.2043 80.6709C24.6295 82.2456 22.4938 83.1303 20.2668 83.1303C18.0398 83.1303 15.904 82.2456 14.3293 80.6709C12.7545 79.0962 11.8699 76.9604 11.8699 74.7334C11.8699 72.5064 12.7545 70.3706 14.3293 68.7959L41.6813 41.4438C39.691 37.0454 39.0883 32.1448 39.9537 27.3951C40.8191 22.6455 43.1114 18.2724 46.5252 14.8586C49.939 11.4448 54.3122 9.15243 59.0618 8.28703C63.8115 7.42163 68.7121 8.02429 73.1105 10.0147L58.2272 24.898L58.1876 24.9376Z" stroke="black" stroke-width="5" stroke-linecap="round" stroke-linejoin="round"/>
</svg>
