<svg width="95" height="95" viewBox="0 0 95 95" fill="none" xmlns="http://www.w3.org/2000/svg">
<path d="M31.6666 87.0832C33.8527 87.0832 35.6249 85.311 35.6249 83.1248C35.6249 80.9387 33.8527 79.1665 31.6666 79.1665C29.4805 79.1665 27.7083 80.9387 27.7083 83.1248C27.7083 85.311 29.4805 87.0832 31.6666 87.0832Z" stroke="black" stroke-width="5" stroke-linecap="round" stroke-linejoin="round"/>
<path d="M75.2083 87.0832C77.3945 87.0832 79.1667 85.311 79.1667 83.1248C79.1667 80.9387 77.3945 79.1665 75.2083 79.1665C73.0222 79.1665 71.25 80.9387 71.25 83.1248C71.25 85.311 73.0222 87.0832 75.2083 87.0832Z" stroke="black" stroke-width="5" stroke-linecap="round" stroke-linejoin="round"/>
<path d="M8.1145 8.11475H16.0312L26.5603 57.2772C26.9466 59.0777 27.9484 60.6873 29.3934 61.8288C30.8383 62.9703 32.636 63.5724 34.477 63.5314H73.1895C74.9912 63.5285 76.7381 62.9111 78.1415 61.7812C79.5449 60.6513 80.5209 59.0764 80.9083 57.3168L87.4395 27.9064H20.2666" stroke="black" stroke-width="5" stroke-linecap="round" stroke-linejoin="round"/>
</svg>
