<svg width="95" height="95" viewBox="0 0 95 95" fill="none" xmlns="http://www.w3.org/2000/svg">
<path d="M43.5417 23.7498C47.9139 23.7498 51.4583 20.2054 51.4583 15.8332C51.4583 11.4609 47.9139 7.9165 43.5417 7.9165C39.1694 7.9165 35.625 11.4609 35.625 15.8332C35.625 20.2054 39.1694 23.7498 43.5417 23.7498Z" stroke="black" stroke-width="5" stroke-linecap="round" stroke-linejoin="round"/>
<path d="M71.2499 39.5833C75.6222 39.5833 79.1666 36.0389 79.1666 31.6667C79.1666 27.2944 75.6222 23.75 71.2499 23.75C66.8777 23.75 63.3333 27.2944 63.3333 31.6667C63.3333 36.0389 66.8777 39.5833 71.2499 39.5833Z" stroke="black" stroke-width="5" stroke-linecap="round" stroke-linejoin="round"/>
<path d="M79.1667 71.2498C83.5389 71.2498 87.0833 67.7054 87.0833 63.3332C87.0833 58.9609 83.5389 55.4165 79.1667 55.4165C74.7944 55.4165 71.25 58.9609 71.25 63.3332C71.25 67.7054 74.7944 71.2498 79.1667 71.2498Z" stroke="black" stroke-width="5" stroke-linecap="round" stroke-linejoin="round"/>
<path d="M35.6251 39.5835C38.2241 39.5835 40.7978 40.0954 43.199 41.09C45.6002 42.0847 47.7821 43.5425 49.6199 45.3803C51.4577 47.2182 52.9156 49.4 53.9102 51.8012C54.9048 54.2025 55.4167 56.7761 55.4167 59.3752V73.2293C55.4157 76.5403 54.2288 79.7415 52.0712 82.2529C49.9136 84.7644 46.9279 86.42 43.6549 86.9201C40.3819 87.4201 37.038 86.7315 34.2289 84.9788C31.4199 83.2261 29.3314 80.5254 28.3417 77.3658C26.6528 71.9165 23.0903 68.3474 17.6542 66.6585C14.4962 65.6694 11.7966 63.5825 10.0438 60.7755C8.29101 57.9685 7.60092 54.6268 8.09837 51.3551C8.59582 48.0834 10.248 45.0978 12.7558 42.9386C15.2637 40.7795 18.4616 39.5893 21.7709 39.5835H35.6251Z" stroke="black" stroke-width="5" stroke-linecap="round" stroke-linejoin="round"/>
</svg>
