<svg width="95" height="95" viewBox="0 0 95 95" fill="none" xmlns="http://www.w3.org/2000/svg">
<path d="M79.1666 51.4585C79.1666 71.2501 65.3124 81.146 48.8458 86.8856C47.9835 87.1778 47.0468 87.1638 46.1937 86.846C29.6874 81.146 15.8333 71.2501 15.8333 51.4585V23.7502C15.8333 22.7003 16.2503 21.6935 16.9926 20.9512C17.735 20.2089 18.7418 19.7918 19.7916 19.7918C27.7083 19.7918 37.6041 15.0418 44.4916 9.02515C45.3302 8.30869 46.3969 7.91504 47.4999 7.91504C48.6029 7.91504 49.6697 8.30869 50.5083 9.02515C57.4353 15.0814 67.2916 19.7918 75.2083 19.7918C76.2581 19.7918 77.2649 20.2089 78.0072 20.9512C78.7495 21.6935 79.1666 22.7003 79.1666 23.7502V51.4585Z" stroke="black" stroke-width="5" stroke-linecap="round" stroke-linejoin="round"/>
</svg>
