<svg width="95" height="95" viewBox="0 0 95 95" fill="none" xmlns="http://www.w3.org/2000/svg">
<path d="M75.2083 43.5415H19.7917C15.4194 43.5415 11.875 47.0859 11.875 51.4582V79.1665C11.875 83.5388 15.4194 87.0832 19.7917 87.0832H75.2083C79.5806 87.0832 83.125 83.5388 83.125 79.1665V51.4582C83.125 47.0859 79.5806 43.5415 75.2083 43.5415Z" stroke="black" stroke-width="5" stroke-linecap="round" stroke-linejoin="round"/>
<path d="M27.7083 43.5415V27.7082C27.7083 22.4591 29.7934 17.425 33.5051 13.7133C37.2168 10.0017 42.2508 7.9165 47.4999 7.9165C52.749 7.9165 57.7831 10.0017 61.4947 13.7133C65.2064 17.425 67.2916 22.4591 67.2916 27.7082V43.5415" stroke="black" stroke-width="5" stroke-linecap="round" stroke-linejoin="round"/>
</svg>
