<svg width="95" height="95" viewBox="0 0 95 95" fill="none" xmlns="http://www.w3.org/2000/svg">
<path d="M23.75 7.9165L11.875 23.7498V79.1665C11.875 81.2661 12.7091 83.2798 14.1937 84.7644C15.6784 86.2491 17.692 87.0832 19.7917 87.0832H75.2083C77.308 87.0832 79.3216 86.2491 80.8063 84.7644C82.2909 83.2798 83.125 81.2661 83.125 79.1665V23.7498L71.25 7.9165H23.75Z" stroke="black" stroke-width="5" stroke-linecap="round" stroke-linejoin="round"/>
<path d="M11.875 23.75H83.125" stroke="black" stroke-width="5" stroke-linecap="round" stroke-linejoin="round"/>
<path d="M63.3334 39.5835C63.3334 43.7828 61.6653 47.81 58.6959 50.7794C55.7266 53.7487 51.6993 55.4168 47.5001 55.4168C43.3008 55.4168 39.2735 53.7487 36.3042 50.7794C33.3349 47.81 31.6667 43.7828 31.6667 39.5835" stroke="black" stroke-width="5" stroke-linecap="round" stroke-linejoin="round"/>
</svg>
