<svg width="95" height="95" viewBox="0 0 95 95" fill="none" xmlns="http://www.w3.org/2000/svg">
<path d="M43.5416 79.1665C36.591 79.1876 29.8863 76.5956 24.7574 71.9046C19.6284 67.2137 16.4498 60.7664 15.852 53.8415C15.2542 46.9166 17.2808 40.02 21.5299 34.5194C25.779 29.0189 31.9402 25.3162 38.7916 24.1457C61.3541 19.7915 67.2916 17.7332 75.2083 7.9165C79.1666 15.8332 83.1249 24.4623 83.1249 39.5832C83.1249 61.354 64.2041 79.1665 43.5416 79.1665Z" stroke="black" stroke-width="4" stroke-linecap="round" stroke-linejoin="round"/>
<path d="M7.91675 83.125C7.91675 71.25 15.2397 61.9083 28.0251 59.375C37.6042 57.475 47.5001 51.4583 51.4584 47.5" stroke="black" stroke-width="4" stroke-linecap="round" stroke-linejoin="round"/>
</svg>
