<svg width="95" height="95" viewBox="0 0 95 95" fill="none" xmlns="http://www.w3.org/2000/svg">
<path d="M59.3749 7.9165H23.7499C21.6503 7.9165 19.6367 8.75058 18.152 10.2352C16.6673 11.7199 15.8333 13.7335 15.8333 15.8332V79.1665C15.8333 81.2661 16.6673 83.2798 18.152 84.7644C19.6367 86.2491 21.6503 87.0832 23.7499 87.0832H71.2499C73.3495 87.0832 75.3632 86.2491 76.8478 84.7644C78.3325 83.2798 79.1666 81.2661 79.1666 79.1665V27.7082L59.3749 7.9165Z" stroke="black" stroke-width="5" stroke-linecap="round" stroke-linejoin="round"/>
<path d="M55.4167 7.9165V23.7498C55.4167 25.8495 56.2508 27.8631 57.7355 29.3478C59.2202 30.8324 61.2338 31.6665 63.3334 31.6665H79.1667" stroke="black" stroke-width="5" stroke-linecap="round" stroke-linejoin="round"/>
<path d="M39.5834 35.625H31.6667" stroke="black" stroke-width="5" stroke-linecap="round" stroke-linejoin="round"/>
<path d="M63.3334 51.4585H31.6667" stroke="black" stroke-width="5" stroke-linecap="round" stroke-linejoin="round"/>
<path d="M63.3334 67.2915H31.6667" stroke="black" stroke-width="5" stroke-linecap="round" stroke-linejoin="round"/>
</svg>
