<svg width="95" height="95" viewBox="0 0 95 95" fill="none" xmlns="http://www.w3.org/2000/svg">
<path d="M63.3334 83.125V75.2083C63.3334 71.0091 61.6653 66.9818 58.6959 64.0125C55.7266 61.0432 51.6993 59.375 47.5001 59.375H23.7501C19.5508 59.375 15.5236 61.0432 12.5542 64.0125C9.5849 66.9818 7.91675 71.0091 7.91675 75.2083V83.125" stroke="black" stroke-width="5" stroke-linecap="round" stroke-linejoin="round"/>
<path d="M35.6251 43.5417C44.3696 43.5417 51.4584 36.4528 51.4584 27.7083C51.4584 18.9638 44.3696 11.875 35.6251 11.875C26.8806 11.875 19.7917 18.9638 19.7917 27.7083C19.7917 36.4528 26.8806 43.5417 35.6251 43.5417Z" stroke="black" stroke-width="5" stroke-linecap="round" stroke-linejoin="round"/>
<path d="M87.0833 83.1251V75.2084C87.0806 71.7002 85.913 68.2923 83.7637 65.5196C81.6143 62.747 78.605 60.7667 75.2083 59.8896" stroke="black" stroke-width="5" stroke-linecap="round" stroke-linejoin="round"/>
<path d="M63.3333 12.3896C66.7391 13.2617 69.7578 15.2424 71.9135 18.0196C74.0692 20.7968 75.2393 24.2125 75.2393 27.7282C75.2393 31.2439 74.0692 34.6595 71.9135 37.4368C69.7578 40.214 66.7391 42.1947 63.3333 43.0667" stroke="black" stroke-width="5" stroke-linecap="round" stroke-linejoin="round"/>
</svg>
